<?xml version="1.0" encoding="utf-8"?>
<!-- Generator: Adobe Illustrator 18.1.1, SVG Export Plug-In . SVG Version: 6.00 Build 0)  -->
<svg version="1.1" id="Layer_1" xmlns="http://www.w3.org/2000/svg" xmlns:xlink="http://www.w3.org/1999/xlink" x="0px" y="0px"
	 viewBox="0 0 564.2 797.4" enable-background="new 0 0 564.2 797.4" xml:space="preserve">
<g>
	<g>
		<path fill="#EDEDED" d="M396.1,0.2c2.3,0,4.7,0,7,0c-0.4,6.1,2.3,11.6,3.7,17.3c6.5,25.3,12.1,50.9,18.7,76.3
			c4.2,16,8,32.1,11.6,48.3c2.5,11.3,5.2,22.5,8.1,33.7c2.3,8.8,3.3,17.9,7.3,26.2c0.5,1,0.1,2.7,1.8,2.3c1.4-0.4,0.7-2,0.7-3.1
			c0.1-9.5,0-18.9,0.1-28.4c0-1.1-0.6-2.4,1-3.5c0,15.7,0.1,31.2,0,46.7c0,3.9,0.4,7.8,2,11.2c2.3,4.7,2.8,9.6,3.8,14.5
			c2.9,13.5,6.4,26.9,9.6,40.3c0.3,0,0.5-0.1,0.8-0.1c0-18.8,0-37.7,0-56.5c0.4,0,0.9,0,1.3,0c0,6.7,0,13.3,0,21.3
			c1.8-2.7,1.5-4.3,1.5-5.7c0-49.7,0-99.3,0-149c0-1.6-0.2-3.3-0.5-4.9c-3.3-13.8-6.7-27.7-10.2-41.5c-3.7-15.1-7.5-30.3-11.3-45.4
			c1.3,0,2.7,0,4,0c-0.5,3.1,1.2,5.8,1.9,8.6c5.2,22,10.4,44.1,15.8,66.9c0.9-25.7,1.7-50.6,1.3-75.5c1,0,2,0,3,0
			c0,75.2,0,150.5,0,225.6c0.6-2.2,1.4-4.5,2-6.9c2.4-9.6,5.1-19.2,7.1-29c3.4-16.1,9.9-31.7,9-48.7c-0.4-6.5,0-13,0.7-19.6
			c0.7-7.1,0.8-14.4-0.4-21.4c-0.9-5.2,0.4-10.2-0.2-15.3c-0.3-2.4,0.8-5.1,0.8-7.8c0-25.6,0-51.3,0-76.9c2,0,4,0,6,0
			c2,7.6,3.5,15.4,5.8,23c3.2,10.9,4.9,22.3,8.3,33.2c0.3,1,0.5,2.2,1.6,2.3c1.4,0.1,1.3-1.2,1.5-2.1c1.9-7,4.2-14,5.6-21.1
			c2.4-11.9,7-23.2,8.3-35.3c1.3,0,2.7,0,4,0c-1.5,7.5-3.5,14.8-5.4,22.2c-2.3,8.8-5.1,17.5-4.6,26.9c0.3,6.2,0.1,12.5,0.1,18.8
			c-0.3,0-0.6,0-1,0c0-6.2,0-12.4,0-19.7c-2.8,6.5-4.3,12.2-5.6,18c-1.5,6.4,0.7,12.5,2.4,18.5c0.3,0.9,0.9,2,2.1,1.8
			c1.3-0.3,1-1.5,1-2.5c0-3.6,0-7.1,0-10.7c1,4.1,1.8,8.5,0.8,12.3c-2,7.6,0.6,14.5,1.9,21.5c0.9,5,3.8,10,4.6,14.6
			c1.5,7.8,3.3,15.5,4.8,23.2c1.6,7.6,4,15.1,6.1,22.7c0.6,0,1.1,0,1.7,0c0.4-8.5,3.6-16.2,5.6-24.3c3.1-12.4,4.8-24.9,4.6-37.8
			c-0.5-35.2-0.2-70.3-0.1-105.5c1,0,2,0,3,0c0,34.5,0,69,0,103.5c0,2.3-0.2,4.4,3,2.5c0,5,0,10,0,15c-3.4,1.9-2.8,5.3-3,8.2
			c-0.5,11.4-0.3,22.9-0.8,34.4c-0.9,19.9-0.3,39.9-0.2,59.9c0,3.5,0.3,7.3,3.9,9.5c0,5,0,10,0,15c-3-0.1-1.1-3.5-3.3-4.5
			c-1.1,1.9-0.6,3.9-0.6,5.7c0,47.8,0,95.6,0,143.4c0,51.3,0,102.6,0,153.9c0,4.3,0.4,8.4,4,11.5c0,5,0,10,0,15c-3.6-1-0.9-5.3-4-7
			c0.1,77.1-0.3,154,1,231c-1,0-2,0-3,0c0-10,0-20,0-30c-0.4,0-0.8-0.1-1.3-0.1c-2.6,10.1-5.2,20.1-7.7,30.2c-1,0-2,0-3,0
			c1.4-6,2.7-11.9,4.1-17.9c2.3-10.2,6.7-20,6.8-30.5c0.3-48.8,0.1-97.6,0-146.5c0-1.3,0.7-2.8-1-4.2c-2.2,8.9-4.3,17.6-6.6,26.2
			c-9.3,33.9-17.8,68-25.8,102.2c-0.6,2.5-2.2,4.4-2.4,7.3c-0.5,6.9-1.2,14.1-4.6,20.3c-1.9,3.4-2.8,6.8-3.1,10.3
			c-0.1,1.8-0.8,3-1.3,4.5c-2.6,9.4-6.6,18.4-7.2,28.2c-1.3,0-2.7,0-4,0c3.7-16.2,8.4-32.3,12.4-48.4c4.6-18.7,9.6-37.2,14.3-55.9
			c8-32,16.4-63.8,24.8-95.7c4.9-18.7,7-37.3,1.6-56.3c-4.6-16.3-8.5-32.7-12.8-49.1c-0.9-3.5-1.8-7.1-2.9-10.6
			c-1-3.3-1.1-6.9-3.6-11c-3.3,13.8-8,26.3-6.9,40c-1.9-0.9-0.1-3.1-1.8-3.8c-0.7,5.1,0.5,10.2-1.3,15.1c0-3.1,0.4-6.1-0.2-9.3
			c-2.6,9.4-5.3,18.6-7.7,27.8c-4.1,15.9-7.6,31.9-12.1,47.7c-4.8,16.8-6.9,33.7-6,51.1c0.5,9.6,0.1,19.2,0.1,28.8
			c0,43.2,0,86.3,0,129.5c-1,0-2,0-3,0c0-56.6,0-113.2,0-169.7c-1.2,1-1.7,2-2,3.1c-4,15.7-7.9,31.5-12.1,47.1
			c-3.7,13.5-5.6,27.2-5.1,41.3c0.6,15.2,0.1,30.5,0.1,45.7c0,10.8,0,21.6,0,32.5c-1.3,0-2.7,0-4,0c0.2-62.9-0.8-125.9,1-188.8
			c0.2-6.3,0-12.7,0-19c0-1.2,0.2-2.4-0.2-3.5c-3.4-10.9-5.6-22-8.2-33.1c-1.3-5.5-2.6-11.1-5.9-17.5c-1.8,6.6-3.4,11.8-4.8,17.2
			c-1.8,7.2-3.4,14.5-5.2,21.7c-2.9,11.7-5.6,23.6-9,35.2c-3.3,11.2-4.8,22.7-8.2,33.8c-1.7,5.5-4.6,11.2-3.4,16.9
			c3.3,15.6,7.3,31,11.4,46.4c4,15.1,6.5,30.7,12.3,45c0.1-1.4,0.2-3.3,0.3-5.1c0.6,8.4,1.2,16.7,3.6,24.9c2.5,8.5,5.3,17,6.3,25.9
			c-1.3,0-2.7,0-4,0c-0.2-1.6-0.1-3.3-0.5-4.9c-1.8-8.6-5-16.8-6.9-25.3c-2.3-10.1-4.5-20.2-7.1-30.3c-4.6-17.4-8.3-35.1-12.7-52.6
			c-1.5-5.8-2-11.9-4.8-18.2c-0.9,3.6-1.6,6.2-2.3,8.9c-3.3,12.5-6.1,25-5.8,38.2c0.6,28.1-0.1,56.2,1.2,84.2c-1.3,0-2.7,0-4,0
			c0-27.9,0-55.9,0-83.8c-3.7,18-11.8,35-12.4,53.7c-0.5-0.7-0.8-1.3-1.2-2c-0.4,1.7-0.8,3.3-1.2,4.9c-2.2,9-5.8,17.7-6.2,27.1
			c-1.3,0-2.7,0-4,0c2.1-19.6,0.5-39.3,1-59c-0.3-13.7,0.7-27.4-1-41c1.2-2,1-4.1,1-6.3c0-11.6,0-23.2,0-34.7c0-5.5,0-10.9,0-16.4
			c-0.5,0-1-0.1-1.5-0.1c-1.5,7-5.6,13.2-6.5,20.5c-1.1,0.8-1,1.9-1,3c0,1.3,0,2.7,0,4c0,0.3,0,0.7,0,1c-0.8-0.3-1.7-2.3-2.4,0
			c-3.4,11.5-8.7,22.4-11.6,34c-0.8,2-1.8,3.9-2.5,6c-6.3,17.9-12.5,35.8-18.9,53.7c-4.2,11.8-8.4,23.6-12.7,35.3c-1,0-2,0-3,0
			c-0.2-1.9,0.3-3.6,1-5.4c3.2-9.2,6.1-18.5,9.6-27.6c8.5-22.3,16.1-44.9,24.1-67.4c1.9-5.4,1.9-10.9,0.9-16.2
			c-3.3-16.2-9.5-31.8-12.4-48.1c-1.8-9.9-6.1-18.9-7.9-28.9c-1.9-10.4-5.2-20.7-7.9-31c-3.9-15-8.4-29.8-11.5-44.9
			c-0.4-1.8-1.7-3.4-2.6-5.2c-1.8,1.5-1.2,3.1-1.2,4.5c-0.6,25.9-0.1,51.9-0.7,77.9c-1.1,46.6,0.1,93.2-1.3,139.8
			c-0.1,4.2,1,8.3,0.9,12.4c-0.2,13.4-1.2,26.8-0.9,40.1c-1,0-2,0-3,0c0.5-34.1,0.1-68.2,0.7-102.3c1.1-61.6-0.3-123.2,1.3-184.8
			c0.3-13.3-4.4-25.5-8-38c-2.3-7.9-4.1-15.9-5.9-24c-1.1-4.8-1.9-9.7-3.9-14.5c-1.4,1.1-1.1,2.2-1.1,3.1
			c-0.1,19.3-0.3,38.6-0.9,57.9c-1,33.9,0.3,67.9-0.9,101.8c-1.4,40.6,0.5,81.2-1,121.8c-1,26.3-0.2,52.6-0.2,78.9c-1.3,0-2.7,0-4,0
			c2.7-51.9-0.1-103.8,1.1-155.7c0,12.5,0,25,0,37.5c0.7-0.5,0.9-0.9,0.9-1.4c0-30.7,0.1-61.3,0-92c0-3-0.9-5.9-1.6-9.7
			c-2.6,3.7-2.7,7.1-3.8,10.2c-5.7,16.4-11.3,32.9-17.2,49.3c-3.5,9.8-6,20-10.1,29.6c-1.7,3.8-3.7,7.9-2.1,12.4
			c4.3,11.7,6.3,24,9.7,36c5.3,19.2,10.1,38.5,14.8,57.8c2.1,8.6,5.5,17,6.2,26c-1,0-2,0-3,0c-10.1-39-20.2-78.1-30.5-118.3
			c-2.7,7.6-5.1,14.1-7.4,20.7c-3.8,11.1-7.6,22.2-11.4,33.3c-1.7,4.8-3.5,9.8-4.3,14.6c-1,6.1-1.3,12.5-1.3,18.8
			c-0.1,10.3,0,20.6,0,31c-1,0-2,0-3,0c0-12.3,0-24.5,0-38.3c-4.3,8.9-6.4,17.1-9,25c-1.4,4.4-4.1,8.4-4,13.2c-1.3,0-2.7,0-4,0
			c3.6-10.5,7-20.9,10.7-31.3c2.8-8,7-15.9,7.1-24.2c0.4-51.1-0.1-102.2,1.3-153.3c0.2-6.6-0.9-12.9-2.4-19.2
			c-4.1-16.9-8.6-33.6-13-50.4c-1.5-5.9-3.1-11.9-4.6-17.8c-0.8,98.8-2,197.5-3.1,296.2c-1,0-2,0-3,0c0-25.3,0-50.7,0-76
			c0-1.8,0.1-3.7-0.4-5.5c-4.3-17.2-8.7-34.4-13.1-51.6c-5.5-21.4-11.1-42.8-16.5-64.2c-2.3-9-4.3-18.2-6.5-27.2
			c-5.3,15.7-12,30.9-8.8,47.9c-0.5,0-1,0-1.5,0c0-3.7,0-7.4,0-11.1c-0.4,0-0.9,0-1.3,0c0,7.1,0,14.3,0,21.4c-0.3,0-0.6,0-1,0
			c0-4.5,0-9,0-13.5c-0.4,0-0.8-0.1-1.2-0.1c-3.3,18.8-12.4,36.1-12.9,55.8c-0.5,20,8.7,37.3,11.9,56.3c0.5-0.1,0.9-0.1,1.4-0.2
			c0-10.6,0-21.1,0-31.7c0.9,9.8,0.9,19.6,0.9,29.4c0,3.2-0.7,6.6,0.2,9.4c3.3,9.7,4.6,19.9,7.5,29.7c3.2,10.3,6.2,20.6,8.2,31.2
			c-1,0-2,0-3,0c-8.6-32.4-17.3-64.7-25.9-97.1c-0.9,8.7-1,17.2-0.9,25.7c0.3,23.8-1.5,47.6-1.2,71.4c-1,0-2,0-3,0
			c-0.5-28.6,0.5-57.3,1-85.9c0.1-7.3-0.1-14.6,0-21.8c0.4-20.5,0.2-40.9,0.7-61.4c1-44.9-0.2-89.9,1.3-134.9
			c0.1-2.8-0.6-5.5-0.3-8.4c1.2-11.2,0-22.2-3.1-33c-0.2-0.8-0.8-1.5-0.9-1.4c-11.7,20.8-6.5,43.1-8.8,64.6c0-11.2,0-22.4,0-34.7
			c-2.6,7.7-5.3,14.1-6.8,20.8c-1.9,8.8-3.6,17.8-6.9,25.9c-8.8,21.4-5.5,43.8-6.4,65.8c-0.7,17.5,0.6,35-0.1,52.4
			c-0.7,19.3-2.7,38.5,3.2,57.3c1.3,4.3,2.6,8.6,3.7,12.9c6.7,27.4,13.8,54.6,21.3,81.8c-1.3,0-2.7,0-4,0
			c-11.7-45.7-23.4-91.3-35.1-137c-0.3,0-0.7,0.1-1,0.1c0,10.5,0,21.1,0,31.6c-0.8-1.3-0.8-2.6-0.9-3.9c-0.9-13.3,1.4-26.7-1.8-40.1
			c-3.2-13.6-6.5-27.1-10.3-40.5c-0.2-0.8-0.6-1.7-1.5-1.7c-1.4,0-1.3,1.2-1.3,2.2c0,4,0,7.9,0,11.9c-0.4,0-0.9,0-1.3,0.1
			c1.5-18.2,0.3-36-7.2-53.1c0.3,5.9-0.4,11.8-0.5,17.7c-0.1,44.9-0.2,89.9,0.1,134.8c0,4.4-0.9,8.8,0.4,13.3
			c2.3,8.3,4.1,16.8,6.2,25.1c1.3,5.3,2.9,10.5,4.1,15.8c1.9,7.9,4.5,15.6,5.2,23.7c-1,0-2,0-3,0c-3.5-15.8-7.1-31.6-11.8-47.2
			c-0.4,0-0.8,0.1-1.2,0.1c0,15.7,0,31.4,0,47c-1.3,0-2.7,0-4,0c1-59.9,1.1-119.9,0.6-179.9c-5.2,13.6-10.3,27.2-15.1,40.8
			c-6.3,17.7-12.3,35.4-18.6,53c-0.7,2-0.8,3.7-0.3,5.7c4.4,16.6,8.5,33.3,13,49.9c2.7,10,5.2,20.2,7.3,30.3c-1.3,0-2.7,0-4,0
			c-2.6-16.9-8.3-33.1-12.2-49.7c-1.6-6.8-3.7-13.5-5.7-20.2c-0.4-1.3,0.5-3.6-1.6-3.7c-2.1-0.1-2,2.4-2.4,3.8
			c-4.3,13.9-10,27.4-14.2,41.3c-2.8,9.3-8.9,18-7,28.5c-1,0-2,0-3,0c0-59,0-118,0-177.1c0-6.4-1.8-12.4-4.1-18.2
			c-0.7-1.8,0.5-5.1-2.9-5.7c0-4.7,0-9.3,0-14c3.1,0.8,2.2,3.8,2.9,5.7c1.4,3.6,1.4,7.7,3.8,12.3c2.4-77.9,0.7-154.4,0.9-231
			c-2.8,3.2-3.6,7.1-4.6,10.9c-0.5,1.8-0.7,3.7-3,4c0-3.7,0-7.3,0-11c0.9-0.1,1.7-0.4,2-1.2c2.4-6.7,5.8-13.2,5.9-20.4
			C8.8,295.4,7,239.2,9,183c0.5-13.6,0.1-27.3,0.1-40.9c0-1.7,0.6-3.6-1.1-5.7c-2.8,3.4-3.6,7.5-4.8,11.3c-0.6,1.9-0.5,4.1-3.1,4.5
			c0-3.3,0-6.7,0-10c0.9-0.1,1.7-0.4,2-1.2c3.2-8,6.9-15.9,7-24.8c0.1-38.7,0-77.3,0-116c1,0,2,0,3,0c1.6,29.3-0.9,58.7,0,88
			c0,7,0,14,0,21c0.5,0.1,0.9,0.2,1.4,0.3c2.1-9.1,6.9-17.1,8.6-26.3c4.6-13,9.2-25.9,13.8-38.9c0.6-1.7,0.1-3.6-0.3-5.4
			C32.3,26,29.3,13.1,26.1,0.2c1,0,2,0,3,0c3.1,11.8,6.2,23.5,9.3,35.3c4.3-12.1,9.8-23.2,12.7-35.3c2.3,0,4.7,0,7,0
			c0.7,36-1.2,72,1,108c0.4,6.9,0.8,13.7,2.5,20.5c2.4,9.3,4.8,18.6,7.3,27.9c4.5,17.1,8.4,34.3,12.6,51.5c0.2,0,0.5,0,0.7-0.1
			c0-11.9,0-23.8,0-35.7c0.8,0.8,0.8,1.6,0.9,2.4c0.9,14.2-1.4,28.4,1.8,42.6c2.5,11.1,5,22.1,7.8,33.2c3.8,15.1,7.5,30.2,11.3,45.3
			c0.4,1.7,0.1,3.6,2.5,5.1c1.2-5.5,3.7-10.2,3.6-15.6c-0.3-12.3-0.1-24.6-0.5-36.8c-0.3-10.9,1.3-21.9,1.4-32.8
			c0.2-28.2,0.1-56.3,0.1-84.5c0-2.2-0.1-4.3-0.6-6.4c-2.4-11.3-5.3-22.5-8.3-33.7c-5.3-20-10.2-40.2-15.1-60.3
			c-2.5-10.1-5.5-20.2-7-30.5c1,0,2,0,3,0c1.7,8.1,3.8,16,5.7,24c4,17.2,9.1,34.2,13.3,51.4c5.4,22,11.1,44,16.4,66
			c4.9,20.1,10.5,40.1,14.8,60.3c0.7,3.4,1.4,7.1,2.9,11.6c1.8-4.3,3.5-7.3,4.3-10.6c1.9-7.4,6.2-14.1,6.4-21.8
			c0.4-18.8-0.1-37.6,1-56.4c0.2-3.1-1.2-6.4-0.8-9.4c1.5-10,0.5-19.9,0.8-29.9c0.1-1.8,0.1-3.6-0.5-5.4c-3.9-11.5-5.9-23.4-9-35.1
			c-4-14.8-7.3-29.8-11.4-44.7c1.3,0,2.7,0,4,0c0.2,1.5,0.3,3,0.7,4.4c4.6,17.8,9.1,35.6,13.8,53.4c0.7,2.6-0.4,5.8,2.8,8.3
			c-1.1-14.3,0.4-27.9,0.7-41.6c0.2-8.2,0-16.3,0-24.5c1,0,2,0,3,0c-0.5,13.5,0.9,26.9-0.9,40.4c-1.1,8.7,0.9,17.5,0.4,26.3
			c-0.7,12.2-0.3,24.5-0.6,36.8c-0.2,9.1,0.4,18.2-0.8,27.4c-0.9,6.5-0.2,13.3-0.2,20.5c2.6-2.2,1.9-4.6,2.5-6.6
			c2.7-9.1,4.8-18.3,7.9-27.2c2.9-8.6,2.3-17.8,6.9-26.2c2.9-5.3,3.7-12,5.2-18.1c0.8-3.2,2.7-6.4,1.7-10c-1.9-6.7-3.8-13.4-6-21.3
			c-0.2,2.4-0.3,3.6-0.5,6c-1.9-6.7-0.4-12.4-2.1-18.1c-3-9.8-5.1-19.9-7.6-29.9c1.3,0,2.7,0,4,0c3.2,19.4,9.7,38,14.4,58.4
			c3-10.8,5.9-20.1,8.1-29.6c2.2-9.7,6.4-18.8,7.5-28.8c1.3,0,2.7,0,4,0c-0.9,3.9-1.8,7.7-2.8,11.6c-4,14.4-8.3,28.8-12,43.3
			c-1.5,5.9-3.3,11.8-1.2,18.2c2.3,6.9,3.9,14.1,5.6,21.1c0.6,2.3,1.8,3.7,4.3,4.3c-1.1,1.4-3.1,1-2.4,3.6
			c5.8,21.8,11.3,43.6,17,65.4c1.2,4.7,2.6,9.5,4.1,15.2c1.3-5.6,3.4-9.9,3.5-14.6c0.5-27.4-0.2-54.9,0.8-82.3
			c1-28.6,0.2-57.3,0.2-85.9c1.3,0,2.7,0,4,0c-1.5,52-0.8,104-1.1,156.3c8.2-19.2,3.8-39.4,6-59c0,11.2,0,22.4,0,34.8
			c2.5-5.8,3.9-10.5,5.1-15.3c2.1-8.1,4.7-16.2,6.8-24.3c1.5-5.9,3.2-11.8,3.2-18.1c0.2-24.8-1.2-49.6,0.9-74.4c2,0,4,0,6,0
			c-0.5,2.5,1.4,4.3,1.9,6.6c5.3,24.3,12,48.2,18.2,72.3c4.4,17.1,8.5,34.3,12.8,51.5c3.7,14.9,7.1,30,11.5,44.7
			c1.8,6.2,2.5,12.8,5.6,20c-0.8-22.9,3.1-44.3,2.1-66c-0.2-4.7-1.3-9.2-1.1-13.9c0.5-20.9-0.6-41.9,0.8-62.8
			c1.2-17.4,0.8-34.9,1.2-52.3c1,0,2,0,3,0c-0.5,59.7-1,119.3-1.5,179c1.5-6,5-11.1,6.6-17c3.8-14.4,10.3-27.9,14.5-42.1
			c2.1-7,4.1-14,4.2-21c0.5-33,0.2-65.9,0.2-98.9c1.3,0,2.7,0,4,0c0.8,29.8-1.3,59.5-1,89.2c0,1.4-1.1,3.8,1.3,4.1
			c1.8,0.2,1.8-2.2,2.2-3.5c3.6-11.9,7.8-23.6,12.1-35.2c6.7-18.1,12.7-36.5,19.4-54.7c1.3,0,2.7,0,4,0c-1.2,4-2,8.1-3.7,11.8
			c-8.7,18.9-14,39-21.2,58.4c-4,10.9-7,22.2-11.6,32.8c-2.4,5.6-2.9,10.9-2.3,16.5c0.3,3.1,0.6,6.4,0.3,9.2
			c-1.6,14.7-0.7,29.5-1.2,44.3c-1.1,29.4-0.3,58.9-0.3,88.4c0,1.2,0.2,2.3,0.3,3.5c3.7-10,7.1-19.8,10.6-29.5
			c4.8-13.2,8.8-26.7,13.5-39.9c5.4-15,11-29.8,15.5-45.1c2.5-8.6,5.8-16.9,9-25.2c4.6-12.2,8.9-24.1,8.2-37.5
			c-0.6-11.5-0.1-23-0.1-34.5c0-1.3-0.5-2.8,1.1-4.7c0,16.2,0,31.7,0,47.2c3.8-7.7,8.1-15,7.4-23.8c-0.1-1.5,0.7-2.5,1.6-2.8
			c3.2-1.4,3-4,3-6.7C396.1,41.9,396.1,21.1,396.1,0.2z M145.1,202.2c-0.9,1.5-2.1,3-2.7,4.7c-2.5,6.7-5.4,13.2-2.7,20.9
			c2.5,7.2,4,14.8,5.9,22.3C145.9,234.1,147.4,218.1,145.1,202.2c1.3-1.9,2.5-3.9,1-7.1C144.6,197.8,145.3,200.1,145.1,202.2z
			 M132.1,214.2L132.1,214.2c-0.5-3.3-0.7-6.6-1.5-9.8c-4.4-18.1-9-36.2-13.6-54.3c-0.5-2.1-0.4-4.5-3-6.8c0,44.2,0,87.6,0,130.9
			c-0.8,0.9-1.6,1.8,0,3.2c0-1.3,0-2.2,0-3.2c2.7-1.3,2.8-4.1,3.6-6.4c5.3-14.9,10.4-29.9,15.6-44.8
			C134.4,219.8,134.8,216.8,132.1,214.2z M385.1,112.2c1.6,1.5,0.9,3.4,1,5.2c0.1,8.2,0,16.3,0,24.5c0,5.7,0,11.3,0,17
			c-1-12.5-0.9-24.9-1-37.4c0-1.8,1.2-4.6-1.7-5c-3.1-0.4-2.7,2.8-3.2,4.7c-1.1,3.8-2,7.7-3.6,11.4c-5.3,11.5-4.6,24-2.5,35.6
			c3.9,21.6,9.8,43,15.3,64.3c1.6,6.2,3,12.6,5.4,18.6c0.4-1.6,0.4-3.1,0.4-4.6c0.6-29.8-0.4-59.5,0.8-89.3
			c0.9-23.4,1-46.9-0.3-70.4c-0.1-0.9,0.6-2.1-0.9-2.3c-1.2-0.1-1.6,1-2,1.9c-1,2.3-1.7,4.6-2.7,6.9
			C387.3,99.3,385.1,105.5,385.1,112.2c-0.6,0.1-1.4,0.1-1.5,0.9c0,0.2,0.4,0.6,0.5,0.5C385,113.6,385,112.9,385.1,112.2z
			 M421.1,673.2c2.6-7.3,4.5-14.4,2.6-22.6c-3.6-14.9-8.1-29.7-11.3-44.7c-4-18.8-9.1-37.3-13.9-56c-0.5-1.9,0.3-4.3-2.4-5.9
			c0,77.6,0.5,154.7-1.5,233.1c11.8-27.2,7.8-54.7,9.4-81.7c0,14.9,0,29.7,0,44.6c1-0.4,1.3-1,1.4-1.6c4.2-17.2,8.5-34.5,12.6-51.7
			C419.2,682.2,421.6,678.1,421.1,673.2L421.1,673.2z M491.1,391.2c0.3-0.7,0.8-1.4,1-2.2c4.7-13.2,5.2-26.8,5-40.6
			c-0.2-13-0.3-26,0-39c0.3-13-0.4-25.9-0.2-38.9c0.4-30.6,0.1-61.3,0.2-91.9c0-1.4,0-2.9,0-4.3c-2.7,5.7-4.4,11.7-6,17.6
			c-2.6,9.8-4.6,19.6-7.4,29.4c-3.1,11.1-5.8,22.4-5.7,34.2c0.3,33.4,0.1,66.8,0.1,100.2c0,26.3,0,52.6,0,79c0,1.6-0.7,3.6,1.4,5.2
			c2.9-11.6,5.8-22.8,8.5-34C489.3,401.1,490.1,396.2,491.1,391.2C491.1,391.2,491.1,391.2,491.1,391.2z M84.1,238.2
			c-1.6,0.8-0.4,2.9-2,4.1c0-4.1,0.1-7.9,0-11.7c-0.1-4.1,0.4-8.3-0.7-12.4c-7-26.6-13.8-53.2-20.7-79.8c-0.4-1.5,0.2-3.6-1.9-4.8
			c0,100,0,199.7,0,299.4c2.7-3.9,4.5-7.9,5.9-12.1c5.4-15.5,10.6-31.1,16-46.6c0.8-2.4,1.5-4.7,1.5-7.2c0-37.7,0-75.5,0-113.2
			c0.2,0,0.4,0,0.6,0c0,34.7,0,69.4,0,104.4c2.1-0.7,0.6-2.4,2-2.9c0.3,1,0.5,1.9,1,3.8c5.2-14.8,10.2-28.5,14.9-42.3
			c2.1-6,2.5-11.9,0.9-18.4c-3-12.4-6.7-24.6-9.5-37.1c-1.8-7.7-3.3-15.5-6-23C85.3,236.1,84.9,236,84.1,238.2L84.1,238.2z
			 M527.1,405.2c1.3,1.2,1.1,2.8,1,4.2c-1.2,13.5,2,26.4,5.4,39.2c0.4,1.6-0.1,3.8,2.2,4.9c1.5-5.3,3-10.5,4.5-15.8
			c3.8-13.9,6.6-28,10.7-41.8c4.7-16,6.8-32.2,6.4-49c-0.7-27.8-0.2-55.6-0.2-83.4c0-1.7-0.3-3.4,0.2-5c2.3-7-0.5-14.1,0.1-21.2
			c0.8-9.3-1.9-18.3-4.3-27.3c-2.1-7.7-3.7-15.5-5.6-23.3c-2,3.9-3.3,7.8-4.3,11.7c-6.7,26.8-13.3,53.7-19.9,80.5
			c-5.3,21.2-10.6,42.5-15.9,63.7c-0.6,2.3-0.4,4.6,0.3,6.9c4.7,15.5,7.4,31.6,12.8,47c1.8,5.3,1.8,11.2,4.6,17.6
			c0-7.6,0-13.9,0-20.3c0-2.9,0.7-6-2.6-8.1c4.2-1.6,3,2.5,4.6,3.4l0,0c1.1,4.7,1.9,9.3,0,14c-0.1-0.6-0.2-1.3-0.2-1.9
			c-0.2,0.1-0.4,0.2-0.6,0.3c0.3,0.5,0.6,1.1,0.9,1.6c0,0.7,0,1.3-0.2,2c-0.1,0-0.2,0-0.3,0c0,4.9,0,9.9,0,14.8c0.1,0,0.2,0,0.3,0
			C526.9,415.1,526.9,410.2,527.1,405.2z M257.1,257.2c-1.9-2-0.4-4.6-1.2-6.7c-3.7-9.7-5.5-19.9-7.8-30c-0.2-1-0.3-2.1-1.7-1.9
			c-1,0.1-1.2,1-1.2,1.9c0,3.3-0.1,6.7-0.1,10c0,5.5,0,10.9,0,16.4c-1-2.7-0.9-5.3-1-7.9c-0.4-15.7,1.9-31.6-3-47.1
			c-0.3-1,0.1-2.4-2.2-2.8c1.6,5.2,0.2,10.2,0.2,15.3c0,28.3-0.1,56.6,0.1,85c0,5.7,0.7,11.6,0.3,17.2c-1,13.3-0.9,26.6-1.1,39.8
			c-0.7,50.6-0.3,101.3-0.3,151.9c0,7.7,0,15.3,0,23c3.9-15.6,0.9-31.7,3.2-47.5c0,12.1,0,24.2,0,36.2c0-3,2.2-5,3.2-7.4
			c5.9-15,10.8-30.3,16-45.5c7.8-22.4,15.5-44.8,23.2-67.2c1.8-5.3,5.3-10.5,3.3-16.7c-5.6-17.2-7.3-35.4-13.4-52.5
			c-2.8-7.9-3.8-16.3-6-24.4c-0.8-3.1-2.9-5.8-3.2-9.1c-0.9-8.4-2.7-16.6-6.2-24.4C257.4,260.9,257,259.1,257.1,257.2
			c0.1-0.1,0.2-0.2,0.2-0.4C257.3,257,257.2,257.1,257.1,257.2z M43.1,247.2c1.1-0.1,1.2,2.9,1.9,1.4c4.2-9.7,9.6-19.5,9.8-30
			c0.8-31.5,0.2-63,0.3-94.5c0-6-0.4-11.9-2.1-17.7c-2.3-8-3-16.5-6.2-24c-3.5-8.2-4.3-16.8-6.3-25.2c-0.6-2.4-0.1-5.2-2.9-7.9
			C36,57.6,32.5,64.5,30,71.8c-3.7,11-7.7,21.9-11.6,32.8c-3.9,11.1-6.7,22.2-6.6,34.4c0.6,54.5,0.3,109,0.1,163.4
			c0,8.5,3.5,15.9,5.5,24.7c2.5-6.5,4.7-12,6.7-17.6c4.9-13.6,9.4-27.4,14.8-40.8c1.9-4.8,1.2-10,3.6-14.8c0.6-1.2-1.4-5.4-1.4-8.3
			c0-21.2,0-42.3,0-63.5c0-1.5-0.5-3.2,1-5.4c0,15.2-0.1,29.7,0,44.2C42.3,229.7,41.2,238.5,43.1,247.2c-0.1,0.1-0.1,0.2-0.2,0.4
			C43,247.5,43.1,247.4,43.1,247.2z M69.1,420.2c-0.3-0.3,0.4-1.3-0.7-1C68.6,419.6,68.9,419.9,69.1,420.2c0.8,2.7-2.4,2.8-3,4.7
			c-1.9,6.4-4.1,12.6-6,19c-3.8,12.4-1.4,25.1-2,37.7c-0.1,2-0.3,4.1,0.3,5.9c3.5,10,5.5,20.5,8.1,30.7c4.2,16.4,9,32.6,12.6,49.1
			c0.6,2.9,1.5,5.7,2.3,8.6c0.3,0,0.6-0.1,0.9-0.1c0-32.4,0-64.9,0-97.3c0.3,0,0.5,0,0.8,0c0,1.6,0,3.3,0,4.9c0,26,0.8,52-0.2,78
			c-1,23.7,7.4,45.3,13.1,67.5c0-12.7,0-25.3,0-38c0.3,0,0.7,0,1,0c0,15.4,0,30.7,0,46.1c0.4,0,0.7,0,1.1,0c0-9.2,0-18.5,0-27.7
			c0.7,20.9-0.6,41.9,8.8,61.4c0.9-25.2,0.2-50.5,0.9-75.8c1.5-47.9-0.3-95.9,1-143.8c1.1-40,0.3-80,0.2-120c0-5.6-1.5-11-3.9-17.6
			c-6.9,22.7-16.8,43.1-20.9,64.7c-0.1-0.2-0.3-1.1-0.5-1.9c-0.2,0-0.4,0-0.7,0.1c0,21.5,0,43,0,64.5c-0.4,0-0.7,0-1.1,0
			c0-18.9,0-37.9,0-57.2c-2.4,1.2-2.3,3.1-2.8,4.6C75.5,398.9,71.4,409.3,69.1,420.2z M452.1,480.2c1.9,2.4-0.4,5.8,2,8
			c-0.3,0.5-0.6,1.1-0.8,1.6c0.2,0.1,0.4,0.2,0.6,0.3c0.1-0.6,0.2-1.3,0.2-1.9c1.8,2,0.9,4.5,1,6.7c0.2,7.3,3.4,13.8,4.9,20.7
			c4.7-12.5,7-25.4,10.1-38c1.7-7.2,4.3-14.1,4.2-21.9c-0.3-29.1,0-58.2-0.2-87.3c-0.1-13,1.6-26.2-1.5-39.2
			c0.4,0.6,0.7,1.2,1.3,2.2c0.9-3-1-5.4-0.7-8c0.9-6.7,2-13.1-0.7-20c-1.3-3.3-1.3-7.7-2.3-11.5c-3.5-14.3-6.9-28.7-10.4-43
			c-0.3-1.3-0.2-3.6-2.2-3.4c-2.4,0.3,0.1,2.6-0.9,3.6c-0.2,0.2-0.5,0.2-0.8,0.3c-0.9-0.5-0.8-1.4-0.7-2.2
			c1.5-19.7-5.4-37.9-9.5-56.6c-3.4-15.7-8.2-31-11.6-46.7c-3.1-14-6.7-27.8-10.1-41.7c-0.8,11.1-1.2,22-1.6,33
			c-0.6,19.4,0,38.8-0.2,58.3c-0.3,27.6,0.3,55.2-0.7,82.9c-1.1,27.3-0.2,54.7-0.2,82c0,1.3-0.1,2.7,0.3,4c4,13.6,7,27.5,10.4,41.3
			c4.2,16.9,8.7,33.7,12.7,50.6C446.6,463.1,448.9,471.8,452.1,480.2c-0.4,0.3-1.2,0.5-0.4,1.2C451.9,481.1,452,480.7,452.1,480.2z
			 M170.9,557.2c3.3-10.5,6-20.1,7.9-30c1.8-9.3,5.9-18.3,8.4-27.6c7-25.7,14.6-51.3,21.8-76.9c7.8-27.8,15.4-55.6,23.2-83.4
			c4.2-14.9,4.4-30,1.3-44.9c-3.3-15.7-8-31.1-12-46.7c-3-11.5-5.9-23-8.8-34.6c-1.3-5-1.9-10.2-4.3-15.9c-3.3,10.1-5.3,19.7-8.2,29
			c-5.4,17.6-10.1,35.4-15,53.1c-10.4,37.8-20.7,75.7-30.9,113.6c-3.2,11.8-7.8,23.4-6.4,36.1c0,0.3-0.1,0.7-0.1,1
			c-1.7,15.6-1.6,31.1,1.9,46.5c2.3,10.2,5,20.3,7.8,30.3c0.5,1.7-0.5,4.3,2.6,5.8c0-8.1,0-15.7,0-23.2c0.3,0,0.6,0,0.9,0
			c0,10.2,0,20.4,0,30.6c0.3,0,0.7,0,1,0c0-4.9,0-9.7,0-14.6c0.5,0,0.9-0.1,1.4-0.1C161.3,523,164.9,539.7,170.9,557.2z
			 M398.8,284.3c-1.4,23.9-1.1,47.7-1.5,71.5c-0.9,57.3-0.3,114.6-0.3,172c0,2.2,0.2,4.3,0.8,6.4c3.4,13.2,6.5,26.4,10,39.5
			c5.7,21.4,10.3,43.2,15.7,64.7c0.8,3.1,1.2,6.8,3.6,9.5c2.7-1.9,1.7-4.7,2.3-7.1c5.9-23.1,12.1-46.2,17.5-69.4
			c2.8-12,7.1-23.9,7.2-36.5c0-0.8,0.3-1.7,0.8-2.2c3.9-4.1,3.7-8.8,2.2-13.7c-0.9-3-2.5-5.9-2.9-9c-1.8-13.1-6.1-25.5-9-38.3
			c-5.5-24-12.3-47.8-17.9-71.8c-6.1-26-12.7-51.8-19.2-77.7C405,309.5,401.9,296.9,398.8,284.3z M290.4,369.4
			c2.2-6.3,4.2-11.5,6-16.8c5.4-15.4,10.8-30.7,16-46.1c1.9-5.7,4.3-11.4,2.4-17.7c-2.7-8.9-5.3-17.8-7.7-26.7
			c-4.7-18.1-9.1-36.2-13.7-54.3c-4-15.3-8.3-30.6-12.1-46c-7.5-29.8-14.5-59.6-22.3-89.3c-4.2-15.9-8.2-31.8-12.2-47.7
			c-1.6-6.5-3.3-12.9-5-19.4c-1.3,21.6-0.7,43-1.4,64.5c-1,34.2-0.3,68.5-0.3,102.8c0,2.3,0,4.7,0.9,6.9c3.6,8.6,4.2,18,6.8,27
			c5.9,20.5,10.6,41.3,16,61.9c5.7,22,11.5,44,17.4,65.9C284.2,345.7,286,357.3,290.4,369.4z M259.6,664.7
			c3.6-7.2,5.8-14.5,8.6-21.6c4.4-11.2,8.4-22.7,12-34.2c4-13,8.8-25.7,13.5-38.4c2.6-7.1,2.7-14.2,3.1-21.6
			c0.2,2.4,0.5,4.7,0.7,7.1c0.7-1.7,0.7-3.4,0.6-5c-0.6-27.3,0.7-54.6-0.8-81.9c-1-17.1-0.2-34.3-0.2-51.5c0-3,0.2-6-0.7-9
			c-2.3-7.8-4.4-15.6-6.9-24.7c-4.4,12.2-8.4,23.1-12.1,34c-10.3,29.9-20.3,59.9-31.2,89.7c-2,5.3-3.8,11-3.2,17.2
			c0.6,6.4,0.1,12.9,0.1,19.3c-0.3,0-0.7,0-1,0c0-7.6,0-15.1,0-22.7c-0.3,0-0.7,0-1,0c0,5.9,0,11.8,0,17.7c-0.4,0-0.8,0-1.2,0
			c0-3.6,0-7.1,0-10.7c-1.2,0.9-1.7,1.8-1.8,2.8c-0.3,5.4-0.1,10.8-0.6,16.1c-1.9,18.5,0.2,36.6,5.5,54.4c3.8,13,6.8,26.2,10.3,39.4
			C255.3,648.9,257.5,656.8,259.6,664.7z M148.1,399.5c1.8-1.2,1.8-2.3,2-3.5c1.2-7.2,4-13.9,5.5-21.1c2.2-10.8,8.2-20.8,6.5-32.4
			c-0.1-0.4,0.1-1,0.4-1.2c2.2-1.4,3.6-3.5,4.3-6c5.3-19,10.5-38.1,15.7-57.1c6.7-24.3,13.5-48.5,19.8-72.9
			c1.5-5.9,4.8-11.7,3.2-18.4c-5.3-21.9-10.8-43.8-16.8-65.5c-4.4-16-8.1-32.1-12.4-49.5c-3,10.8-5.6,20.2-8.3,29.5
			c-4.9,17.2-9.2,34.5-14.6,51.6c-2.1,6.7-3.7,13.6-3.5,21c0.4,18.8,0.8,37.7-0.2,56.5c-0.7,13.4-0.1,26.7-0.6,40
			c-0.9,23.1,0.4,46.2-0.9,69.4C147.3,359.7,148.1,379.4,148.1,399.5z M477.1,680.9c2.6-2.7,2.9-6.2,3.7-9.4
			c4.7-18.3,9.1-36.6,14.1-54.8c4.6-16.8,8.3-33.8,12.7-50.6c5.5-21.2,10.5-42.5,16.2-63.6c0.9-3.2,1.3-6.5,1.3-9.8
			c-0.1-19.8,0-39.6-0.1-59.5c0-2.2,0-4.3-0.6-6.4c-4.5-16.4-8.8-32.9-13.2-49.4c-2-7.5-3.8-15.1-5.7-22.7c-1.4,1.7-1.7,3.2-2.2,4.8
			c-5,16.9-7.9,34.3-13,51.1c-2.3,7.6-3.8,15.5-5.8,23.2c-4.4,17-8.1,33.9-7.8,51.8c0.6,45.2,0.2,90.3,0.2,135.5
			C477.1,641.1,477.1,661,477.1,680.9z M383.1,249.8c-0.2-21-0.2-42-9.5-61.8c-0.1,164.5-2.4,329.1-1.3,492.5
			c8.7-16.6,12-35.3,9.4-55.1c0.5,0.1,1,0.1,1.6,0.2c0,7.5,0,15,0,23.2c3.7-4.1,3.7-8.9,5.4-13c3.2-7.5,4.8-15.3,4.6-23.7
			c-0.6-20.1-0.7-40.1-0.4-60.2c0.2-18.9-0.3-37.9,1.1-56.8c0.6-7.9-0.8-15.9-0.9-23.9c-0.1-14.8,0.8-29.6,1-44.4
			c0.3-29.7,0.1-59.3,0.1-89c0-3-1.1-6-0.6-8.9c3.2-19.4,1-38.9,1.6-58.3c0-0.8,0.1-1.7-0.2-2.5c-4.4-14.5-6.5-29.6-11.9-45.4
			C383.1,232.9,383.1,241.4,383.1,249.8z M360.1,214c0-10.5,0-21,0-31.5c-1.2,1.2-1.7,2.6-2.2,4c-4.3,12.4-8.7,24.8-13,37.2
			c-5.9,17.1-12,34.1-17.7,51.2c-2.5,7.6-1,15.5-1.1,23.3c0,8.5-1.3,17.1,0.7,25.4c4.5,18.8,9.5,37.4,14.3,56.1
			c5.7,22.5,11.4,45,17.1,67.5c0.4-0.1,0.7-0.1,1.1-0.2c0-5.2,0-10.3,0-15.5c1.6,9.1-0.4,18.3,1.9,27.3c2.3,8.8,4.6,17.6,6.9,26.3
			c0.6-109.9,3-219.6,1.8-330.1C357.7,173.9,361.8,194.2,360.1,214z M358.6,479.8c0.3-6.1,1.2-11.9-0.3-17.8
			c-4.9-19.3-10-38.5-14.7-57.9c-5.1-20.7-11.3-41.2-15.6-62.1c-0.5-2.3-0.6-4.9-2.9-7.8c0,10.8,0,20.5,0,30.1
			c0.1,43.8,0,87.6-1,131.3c-0.1,2.2,0.2,4.3,0.8,6.4c5.6,21.1,11.2,42.3,16.5,63.4c5.7,22.6,11.3,45.3,17.5,67.8
			c0.9,3.2,3.3,5.8,3.3,9.2c0,8.3,3.9,15.6,6.1,23.5c0.9-14.1,0.9-28.1,0.9-42.1c0-32.7,0-65.3,0-98c0-11.4,0.9-22.9-3-34
			c-2-5.6-2-11.8-4.8-17.4C359.2,476.1,361.1,478.6,358.6,479.8z M504.9,336.3c4.3-13.8,7.5-27.8,10.9-41.7
			c4.8-19.9,10.1-39.8,14.7-59.7c4-17.4,8.9-34.7,13.2-52c0.6-2.3,1.4-4.7,0.7-7.3c-1.9-7.4-3.6-14.8-5.4-22.2
			c-3.6-14.5-7.3-28.9-11-43.4c-2.6-10-5.2-20-8.2-31.1c-1.2,4-2.1,6.7-2.8,9.6c-3.4,13.3-7.1,26.6-9.9,40
			c-2.8,13.2-8.2,25.9-7.2,39.8c0.4,5.4,0.1,10.9,0.1,16.3c0,40.6,0.2,81.3-0.1,121.9C499.9,316.9,502,326.6,504.9,336.3z
			 M34.4,707.7c5.5-10.4,6.9-21.5,11.4-31.4c6.9-15,9.5-30.6,9.4-47c-0.3-45.4-0.2-90.8,0-136.3c0-6.7-2.4-12.6-3.7-18.8
			c-0.2-0.8-0.7-1.5-1.8-1.2c-1.5,4-3.1,8-4.4,12.1c-2.4,7.7-4.6,15.4-4.4,23.8c0.5,22.6,0.2,45.3,0.1,68c0,1.6,0.7,3.5-1.3,5.2
			c0-26.5,0-52.5,0-78.8c-1.4,1-1.4,2.2-1.8,3.2c-7.1,20.7-13.9,41.5-21.5,62c-4,10.6-6.1,21.2-5.4,32.5c0.4,5.8,0.1,11.7,0.1,17.5
			c0,2,0.1,4,0.9,5.9c4.8,12.4,7.4,25.4,10.8,38.2C26.8,677.3,30.1,692.3,34.4,707.7z M418,344c0.1-0.7,0.1-1.5,0.1-2.2
			c0.5-34.1-0.6-68.3,0.8-102.4c0.9-21.8,0.1-43.7,0.3-65.5c0-2.7-0.9-5.1-0.5-8c1-6.5,1.6-13.3,1.2-19.8c-1-14.6-1.1-29.2,0-43.8
			c0.5-5.8,0.9-11.6-0.4-17.4c-3.3-14.6-6.9-29-10.7-43.5c-2.6-9.8-4.2-19.9-7.4-29.8c-1.8,1.4-1.2,3-1.2,4.4
			c-0.6,22.3,0.2,44.6-0.8,66.9c-1.4,33.1,0.3,66.2-1,99.4c-1,26.6-0.3,53.3-0.1,80c0,7.4,2.3,14.6,4.6,23c0.3-3.2,0.5-5,0.6-6.8
			c1,5-0.2,10.4,1.3,14.9c2.8,8.7,3.6,17.7,6.3,26.4C413.5,327.8,414.6,336.2,418,344z M207.8,704.3c0.5,0,1-0.1,1.5-0.1
			c-1.6-89.1,2.2-178.2-0.2-267.3c-2.1,6.4-2.9,13.1-5.4,19.2c-6,14.7-8.4,30.3-13.3,45.3c-5.7,17.3-9.9,35.1-14.8,52.7
			c-1.6,5.9-3.6,11.7-1.7,18c0.7,2.3,2.9,4.2,2.7,6.3c-0.6,6.9,2.7,12.8,4.1,19.1c4.8,20.6,10.4,41.1,15.7,61.7
			C200.4,674.2,204,689.3,207.8,704.3z M11.1,572c0.5-2.9,2.1-5.1,3-7.5c6.1-17.2,12.6-34.2,18-51.6c3-9.7,9.7-18.4,8-29
			c1.5-2.1,0.9,4,2.1,0.2c1.3-4.5,3-8.8,4.9-13c2.6-5.5,1.2-10.6-0.2-15.9c-4.9-18.8-10.1-37.5-14.6-56.4
			c-4.6-18.8-9.8-37.3-14.8-56.1c-1.9,0.5-1.9,2-2.4,3.1c-3.3,7.7-3.9,16-3.9,24.2c-0.1,65.8,0,131.6,0,197.5
			C11.1,569,11.1,570.5,11.1,572z M136.6,226.9c-0.4-0.1-0.8-0.1-1.2-0.2c-6.1,14.3-1.8,29.6-4.1,44.3c0-9.9,0-19.7,0-29.6
			c-6.2,16.1-11.9,32.2-17.4,48.4c-1.5,4.5-0.7,9.3-0.6,13.9c0.2,10-1.4,20.1,0.7,29.9c3.1,15,7,29.8,10.8,44.7
			c3.1,12.3,6.9,24.5,9.5,36.9c1.3,6.1,3.4,12.1,5.6,19.5c2.9-9.7,5.1-18.1,5.3-26.7c0.2-11.2,0.1-22.5,0.1-33.7c0-18.7,0-37.3,0-56
			c0-1.7,0-3.3,0.2-5c1.7-16.2,1.7-32.6,0.1-48.7C144.1,251.9,139.6,239.5,136.6,226.9z M50.8,458c2.9-7.1,4.5-12.7,4.4-19
			c-0.3-24.7-0.1-49.5-0.1-74.3c0-16.5,0-33,0-49.5c0-21.3-0.1-42.6,0.1-64c0-2.6-0.9-5.2-0.4-7.9c0.5-2.5,0.1-5.2,0.1-7.9
			c-6.5,16.8-14.4,33-13,51.6c-1.6-3.4,0.4-7.2-1.7-10.5c-0.5,0.5-0.8,0.7-0.9,1c-5.7,16-11.4,31.9-17,47.9
			c-1.9,5.3-3.2,10.3-1.4,16.3c5,16.3,8.6,32.9,13.1,49.3C40,412.8,45,434.8,50.8,458z M234.6,343.3c-1.4,5.3-2.3,9.5-3.6,13.5
			c-4.5,13.5-7.6,27.4-11.6,41.1c-3.4,11.5-5.5,23.2-5.2,35.7c0.4,14.2,0.7,28.5-0.9,42.8c-1.3,10.7,2.9,20.9,5.7,31.1
			c4.6,17.3,9,34.7,13.5,52c0.2,0.7,0.3,1.7,1.7,1.4C233.8,488.8,236.3,416.6,234.6,343.3z M320.5,487
			c-0.6-55.9,2.4-111.7,0.5-167.6c0,3.2,0,6.3,0,9.5c-1.8-8.2,1-16.8-4.1-25.6c-0.5,6.8-3.4,11.9-5.4,17.3
			c-5.4,15.1-10.9,30.3-16.1,45.5c-1.8,5.2-4.3,10.3-2.1,16.3c5.4,15.1,8,31.1,12.6,46.5C311.5,448,315.7,467.6,320.5,487z
			 M234,281.3c0.7,0,1.3-0.1,2-0.1c0.5-62.6-0.7-125.1,1.1-187.7c-7.6,21.6-11,44.3-18.7,65.7c-1.6,4.5-2.9,9.2-3.7,13.9
			c-1.2,7.5-5.3,14.3-2.9,22.7c6.8,24.2,12.5,48.7,18.7,73.1C231.6,273.2,232.9,277.2,234,281.3z M318.9,134.6
			c-2.2,2.6-2,5.3-2.9,7.5c-5.3,13.7-10.4,27.4-15.2,41.3c-3.9,11.5-3.8,23.1-1.2,34.8c2.3,10.3,5,20.5,7.6,30.8
			c3.3,12.7,6.6,25.5,9.9,38.2c0.3,0,0.7-0.1,1-0.1c0-12.5,0-25.1,0-37.6c0.3,0,0.5,0,0.8,0c0,11.5,0,23.1,0,35.9
			c1.9-3.6,3.1-5.9,3.2-8.9c0.3-14.1,0.4-28.2,0.7-42.4c0.8-35.3,0.3-70.6,0.2-105.9c0-1.1,0.7-2.8-1.4-3.3
			c-3.2,5.7-0.6,12.2-2.4,18.1C319.2,140.4,319.1,137.9,318.9,134.6z M130,464.9c1.1-1.5,1.7-3,2.2-4.5c2.7-9.1,6.7-18,3.6-28.1
			c-2-6.6-3.6-13.4-5.2-20.1c-4.4-18.3-9.4-36.4-14-54.7c-0.3-1.1-0.3-3.1-2.1-3c-1.9,0.1-1.5,1.9-1.5,3.1
			c-0.1,11-0.8,21.9-0.9,32.9c-0.4,41.1-0.1,82.3-0.2,123.4c0,7-0.7,14-1,21c1.9-3.6,3-7.4,4-11.1c4.5-16.8,9-33.6,13.5-50.5
			c1.4-5.2-0.1-10.6,1.5-15.9C130,460,130,462.5,130,464.9z M146.4,641.3c2.2-1.8,2.4-3.5,2.8-5c5-18,9.3-36.2,15.1-53.9
			c3.8-11.6,5.4-22.7,0.8-34.3c-1.5-3.8-4.1-7.2-3.8-11.5c-0.2,1.8-0.3,3.6-0.5,5.4c0.5-21.4-9.6-40.3-13-60.7
			C147.6,534.4,144.9,587.4,146.4,641.3z M11.4,632.3c-1,18-0.4,34.9-1,51.8c-1.1,27.9-0.3,55.9-0.3,83.9c0,1.2-0.7,3.1,0.9,3.5
			c1.9,0.5,2.3-1.6,2.7-2.9c4.2-14,9.4-27.6,14.5-41.2c2.9-7.6,5-15.1,1.8-23.1c-1.3-3.4-2.1-7-3.1-10.5
			C21.9,673.7,16.8,653.5,11.4,632.3z M236.4,734.6c1.6-4.1,3.3-8.2,4.7-12.4c4.5-13,8.6-26.1,13.3-39.1c2.2-6.1,4.3-11.6,1.9-18.5
			c-3.3-9.7-4.8-19.9-7.6-29.8c-3.6-12.8-7.4-25.6-9.7-38.8c-0.2-1.2-0.5-2.3-2-2.1C235,640.7,236.9,687.7,236.4,734.6z
			 M556.8,536.4c0-50.8,0-100.3,0-150.7c-2.7,10.1-5.3,19.3-7.6,28.5c-2.9,11.4-5.2,22.9-8.7,34.1c-2.9,9.4-2.9,18.4,0.1,27.7
			c3.6,10.9,5.9,22.1,8.9,33.1C551.8,517.7,554.2,526.4,556.8,536.4z M58.8,636.6c3.1-3.5,4.1-7.8,5.6-11.9c4-11.2,7.9-22.2,7-34.6
			c-0.9-12.1-0.2-24.3-0.2-36.5c0-1.7,0-3.4-0.4-4.9c-1.9-8.4-3.9-16.8-6-25.1c-1.2-4.7-1.8-9.6-5-13.8
			C57.4,552,58.4,594.2,58.8,636.6z M501.7,8.2c-0.6,42.7-0.5,85.4-1.2,128.1c0.9-0.4,1.3-0.7,1.4-1.2c4.3-16.9,8.4-33.8,13-50.6
			c2.6-9.5,3.2-18.7-0.2-28.1c-1.9-5.1-3.8-10.3-4.5-15.6C508.8,29.6,504.7,19.1,501.7,8.2z M44.4,46.8c-0.1-0.3-0.2-0.6-0.3-0.9
			c-0.3-1.7,0.7-3.7-0.9-5.2c-0.5-0.5-1.3-0.3-1.8,0.2c-1.9,1.9-1,4-0.4,6c0.3,0.9,0.8,1.8,1,2.8c0.8,3.7,2.7,6.9,3.1,10.7
			c1.1,13.6,6.8,26.2,9.7,39.4c0-32.1,0-64.3,0-96.4c-4.2,10.3-7.8,20.7-11.4,31.2c-0.3,1-0.6,2.1,0.1,2.9
			C46.2,40.4,44.8,43.8,44.4,46.8z M473.1,570.2c0.3-0.1,0.6-0.1,0.8-0.2c0-30.2,0-60.4,0-90.8c-1.3,0.8-1.5,2.1-1.7,3.1
			c-1.7,10-4.1,19.7-7.1,29.3c-2.8,8.9-3.5,17.7-0.1,26.7c0.8,2.1,1.8,4.1,2.2,6.5C468.9,553.4,471.1,561.8,473.1,570.2z
			 M556.8,210.3c0.3,0,0.5,0,0.8,0c0-22,0-44.1,0-66.1c-1.8,7.5-4.5,14.6-6.3,21.9c-1.1,4.7-3,9.4-2,14.2
			C551.5,190.4,554.2,200.3,556.8,210.3z M528.2,481.1c6.6-15,6.5-26.5,0-36.7C528.2,456.4,528.2,468.2,528.2,481.1z M526.4,489
			c0.1,0,0.3,0,0.4,0c0-17.5,0-34.9,0-52.4c-0.1,0-0.3,0-0.4,0C526.4,454.1,526.4,471.6,526.4,489z M11.2,343.3
			c4.7-6.4,4.2-13,1.2-20.5C11.9,330.2,11.5,336.7,11.2,343.3z M144,433.5c-3.4,5.5-3.8,11,0,17.8C144,444.5,144,439,144,433.5z
			 M500.3,354.9c3.7-7.1,2.3-13.3,0-20.4C500.3,341.6,500.3,347.8,500.3,354.9z M109.5,302.7c-3.7,5.4-1.9,9.4-0.1,13.5
			C110.2,312.1,110.3,308,109.5,302.7z M298.2,444.8c0.2,0.1,0.3,0.1,0.5,0.2c0-9.4,0-18.9,0-28.3c-0.2,0-0.3,0-0.5,0
			C298.2,426,298.2,435.4,298.2,444.8z M473.4,286.9c0.2,0,0.3,0,0.5,0c0-6.8,0-13.7,0-20.5c-0.2,0-0.3,0-0.5,0
			C473.4,273.2,473.4,280.1,473.4,286.9z M473.9,249c-0.6,2.5-1.4,5.1,0.4,7.5C475.1,254,475.6,251.5,473.9,249z M456.7,236.5
			c-0.5,2-1.1,4.2,0.4,6.8C458.6,240.5,456.5,238.7,456.7,236.5z M146.1,643.8c-1.3,1.1-1.1,2.3-0.5,3.5c0,0.1,0.5-0.1,0.9-0.1
			C147.1,646,147.6,644.8,146.1,643.8z M83.4,228.6c0,1.8,0,3.6,0,5.5C84.3,232.2,84.3,230.3,83.4,228.6z M454.3,212
			c0.8-1.5,1.1-3-0.8-4C453.8,209.3,454.1,210.7,454.3,212z M526,398.3c1.4-2.4,1.3-3.7,0.4-5.8C526.3,394.4,526.2,395.6,526,398.3z
			 M83.6,599.1c-0.2,0.5-0.5,0.9-0.4,1.3c0.1,0.5-0.6,1.9,0.7,1.5C84.4,601.7,84.4,600.1,83.6,599.1z M113.7,348.2
			c-0.8,1.1-0.7,2.1-0.1,3.2C114.4,350.3,114.3,349.3,113.7,348.2z M394.8,81.7c0.9,0.2,1.1-0.2,1.2-0.7c0-0.3-0.1-0.6-0.2-0.9
			c-0.4,0.2-0.9,0.2-1.1,0.5C394.5,80.9,394.7,81.4,394.8,81.7z M84.2,363.1c-0.2-0.4-0.4-0.7-0.5-1c-0.2,0.4-0.4,0.9-0.5,1.3
			c0,0.3,0.3,0.6,0.4,0.8C83.8,363.9,84,363.5,84.2,363.1z M459.7,533.9c0,0.2,0,0.4-0.1,0.7c0.1-0.1,0.2-0.2,0.2-0.3
			C459.8,534.1,459.7,534,459.7,533.9z M327.5,97c0,0.1-0.1,0.3-0.1,0.4c0,0,0.2,0.1,0.3,0.1c0-0.1,0.1-0.3,0.1-0.4
			C327.8,97.1,327.6,97,327.5,97z M323.6,120.9c0,0.2,0,0.4-0.1,0.7c0.1-0.1,0.2-0.2,0.2-0.3C323.8,121.1,323.7,121,323.6,120.9z
			 M8.6,132.9c0,0.2,0,0.4-0.1,0.7c0.1-0.1,0.2-0.2,0.2-0.3C8.8,133.1,8.7,133,8.6,132.9z M245.9,215.8c0.1,0,0.3,0.1,0.4,0.1
			c0-0.1,0.1-0.3,0.1-0.3c-0.1-0.1-0.2-0.1-0.4-0.2C245.9,215.6,245.9,215.7,245.9,215.8z"/>
		<path fill="#FDFDFD" d="M453.1,0.2c3.8,15.1,7.5,30.3,11.3,45.4c3.4,13.8,6.8,27.7,10.2,41.5c0.4,1.6,0.5,3.3,0.5,4.9
			c0,49.7,0,99.3,0,149c0,1.5,0.4,3-1.5,5.7c0-7.9,0-14.6,0-21.3c-0.4,0-0.9,0-1.3,0c0,18.8,0,37.7,0,56.5c-0.3,0-0.5,0.1-0.8,0.1
			c-3.2-13.4-6.7-26.8-9.6-40.3c-1.1-4.9-1.6-9.9-3.8-14.5c-1.7-3.4-2.1-7.3-2-11.2c0.1-15.5,0-30.9,0-46.7c-1.6,1.1-0.9,2.4-1,3.5
			c-0.1,9.5,0,18.9-0.1,28.4c0,1.1,0.7,2.7-0.7,3.1c-1.7,0.4-1.3-1.4-1.8-2.3c-4-8.3-5-17.4-7.3-26.2c-3-11.2-5.6-22.4-8.1-33.7
			c-3.6-16.2-7.5-32.3-11.6-48.3c-6.6-25.3-12.1-50.9-18.7-76.3c-1.5-5.7-4.2-11.2-3.7-17.3C419.8,0.2,436.5,0.2,453.1,0.2z
			 M453.4,191c0.2,0,0.3,0,0.5,0c0-20.5,0-41.1,0-61.6c-0.2,0-0.3,0-0.5,0C453.4,150,453.4,170.5,453.4,191z M453.5,199
			c0,0.1-0.1,0.2-0.1,0.4c0.1,0,0.3,0.1,0.3,0.1c0.1-0.1,0.1-0.2,0.1-0.4C453.7,199.1,453.6,199,453.5,199z"/>
		<path fill="#FDFDFD" d="M499.1,797.2c0-43.2,0-86.3,0-129.5c0-9.6,0.4-19.2-0.1-28.8c-0.9-17.4,1.3-34.3,6-51.1
			c4.5-15.8,8-31.8,12.1-47.7c2.4-9.2,5-18.4,7.7-27.8c0.6,3.1,0.3,6.2,0.2,9.3c1.8-5,0.5-10.1,1.3-15.1c1.8,0.7-0.1,2.9,1.8,3.8
			c-1.1-13.7,3.5-26.2,6.9-40c2.4,4.1,2.5,7.7,3.6,11c1.1,3.5,1.9,7,2.9,10.6c4.2,16.4,8.1,32.8,12.8,49.1c5.4,19,3.3,37.7-1.6,56.3
			c-8.4,31.9-16.9,63.7-24.8,95.7c-4.6,18.6-9.7,37.2-14.3,55.9c-4,16.2-8.7,32.2-12.4,48.4C500.5,797.2,499.8,797.2,499.1,797.2z"
			/>
		<path fill="#FDFDFD" d="M80.1,0.2c1.6,10.3,4.6,20.4,7,30.5C92.1,50.9,96.9,71,102.2,91c3,11.2,5.9,22.4,8.3,33.7
			c0.5,2.2,0.6,4.3,0.6,6.4c0,28.2,0.1,56.3-0.1,84.5c-0.1,10.9-1.7,21.9-1.4,32.8c0.4,12.3,0.2,24.6,0.5,36.8
			c0.1,5.4-2.4,10.2-3.6,15.6c-2.5-1.5-2.1-3.4-2.5-5.1c-3.8-15.1-7.5-30.2-11.3-45.3c-2.8-11-5.3-22.1-7.8-33.2
			c-3.2-14.2-0.8-28.4-1.8-42.6c-0.1-0.8-0.1-1.6-0.9-2.4c0,11.9,0,23.8,0,35.7c-0.2,0-0.5,0-0.7,0.1c-4.2-17.2-8.1-34.4-12.6-51.5
			c-2.5-9.3-4.9-18.6-7.3-27.9c-1.7-6.8-2.1-13.6-2.5-20.5c-2.2-36-0.3-72-1-108C65.5,0.2,72.8,0.2,80.1,0.2z M82.8,54.4
			c-0.2,0-0.4,0-0.7,0c0,27.7,0,55.4,0,83.1c0.2,0,0.4,0,0.7,0C82.8,109.8,82.8,82.1,82.8,54.4z M82.4,164c0.2,0,0.3,0,0.5,0
			c0-4.5,0-9.1,0-13.6c-0.2,0-0.3,0-0.5,0C82.4,155,82.4,159.5,82.4,164z M82.8,49.3c-0.1-0.1-0.1-0.2-0.2-0.4
			c-0.1,0.1-0.2,0.2-0.2,0.3c0,0.1,0.1,0.2,0.2,0.4C82.7,49.5,82.8,49.4,82.8,49.3z"/>
		<path fill="#FDFDFD" d="M396.1,0.2c0,20.8,0,41.6,0,62.5c0,2.7,0.3,5.3-3,6.7c-0.8,0.4-1.7,1.3-1.6,2.8c0.8,8.8-3.6,16.2-7.4,23.8
			c0-15.5,0-31,0-47.2c-1.6,1.9-1,3.4-1.1,4.7c-0.1,11.5-0.5,23,0.1,34.5c0.7,13.4-3.6,25.2-8.2,37.5c-3.1,8.3-6.4,16.6-9,25.2
			c-4.5,15.3-10.1,30.2-15.5,45.1c-4.8,13.2-8.7,26.7-13.5,39.9c-3.6,9.7-6.9,19.6-10.6,29.5c-0.1-1.2-0.3-2.3-0.3-3.5
			c0-29.5-0.8-59,0.3-88.4c0.5-14.7-0.4-29.5,1.2-44.3c0.3-2.8,0-6.1-0.3-9.2c-0.5-5.6-0.1-10.9,2.3-16.5
			c4.6-10.6,7.6-21.9,11.6-32.8c7.2-19.4,12.5-39.5,21.2-58.4c1.7-3.7,2.5-7.9,3.7-11.8C376.1,0.2,386.1,0.2,396.1,0.2z"/>
		<path fill="#FDFDFD" d="M175.1,797.2c-2-10.6-5.1-20.9-8.2-31.2c-3-9.8-4.3-20-7.5-29.7c-1-2.9-0.2-6.3-0.2-9.4
			c0-9.8,0-19.6-0.9-29.4c0,10.6,0,21.1,0,31.7c-0.5,0.1-0.9,0.1-1.4,0.2c-3.2-18.9-12.4-36.3-11.9-56.3c0.5-19.7,9.6-37,12.9-55.8
			c0.4,0,0.8,0.1,1.2,0.1c0,4.5,0,9,0,13.5c0.3,0,0.6,0,1,0c0-7.1,0-14.3,0-21.4c0.4,0,0.9,0,1.3,0c0,3.7,0,7.4,0,11.1
			c0.5,0,1,0,1.5,0c-3.2-17,3.5-32.2,8.8-47.9c2.2,9.1,4.2,18.2,6.5,27.2c5.4,21.4,11,42.8,16.5,64.2c4.4,17.2,8.8,34.4,13.1,51.6
			c0.4,1.7,0.4,3.6,0.4,5.5c0,25.3,0,50.7,0,76C197.1,797.2,186.1,797.2,175.1,797.2z M160.3,734.8c0.2,0,0.3,0.1,0.5,0.1
			c0-12.5,0-24.9,0-37.4c-0.2,0-0.3,0-0.5,0C160.3,710,160.3,722.4,160.3,734.8z"/>
		<path fill="#FDFDFD" d="M139.1,797.2c-7.5-27.2-14.6-54.4-21.3-81.8c-1.1-4.3-2.4-8.6-3.7-12.9c-5.9-18.9-4-38.1-3.2-57.3
			c0.6-17.5-0.7-35,0.1-52.4c0.9-22-2.4-44.3,6.4-65.8c3.4-8.1,5-17.1,6.9-25.9c1.4-6.7,4.2-13.1,6.8-20.8c0,12.4,0,23.5,0,34.7
			c2.3-21.5-2.9-43.7,8.8-64.6c0,0,0.7,0.7,0.9,1.4c3.2,10.8,4.3,21.9,3.1,33c-0.3,2.9,0.4,5.6,0.3,8.4
			c-1.5,44.9-0.3,89.9-1.3,134.9c-0.5,20.5-0.3,40.9-0.7,61.4c-0.2,7.3,0.1,14.6,0,21.8c-0.5,28.6-1.5,57.2-1,85.9
			C140.5,797.2,139.8,797.2,139.1,797.2z"/>
		<path fill="#FDFDFD" d="M127.1,0.2c4.1,14.8,7.3,29.9,11.4,44.7c3.2,11.7,5.1,23.7,9,35.1c0.6,1.8,0.6,3.6,0.5,5.4
			c-0.3,10,0.7,19.9-0.8,29.9c-0.5,3,1,6.3,0.8,9.4c-1.2,18.8-0.6,37.6-1,56.4c-0.2,7.7-4.6,14.4-6.4,21.8
			c-0.8,3.3-2.5,6.4-4.3,10.6c-1.5-4.4-2.2-8.1-2.9-11.6c-4.3-20.3-10-40.2-14.8-60.3c-5.3-22-11-44-16.4-66
			c-4.2-17.2-9.2-34.2-13.3-51.4c-1.9-8-4-16-5.7-24C97.8,0.2,112.5,0.2,127.1,0.2z"/>
		<path fill="#FDFDFD" d="M322.1,797.2c-0.3-13.4,0.6-26.8,0.9-40.1c0.1-4.1-1-8.2-0.9-12.4c1.4-46.6,0.2-93.2,1.3-139.8
			c0.6-26,0.2-51.9,0.7-77.9c0-1.4-0.6-3,1.2-4.5c0.9,1.8,2.2,3.4,2.6,5.2c3,15.2,7.6,30,11.5,44.9c2.7,10.3,6,20.6,7.9,31
			c1.8,10,6.2,19,7.9,28.9c2.9,16.3,9.1,31.9,12.4,48.1c1.1,5.4,1,10.9-0.9,16.2c-7.9,22.5-15.5,45.1-24.1,67.4
			c-3.5,9.1-6.4,18.4-9.6,27.6c-0.6,1.7-1.1,3.5-1,5.4C328.8,797.2,325.5,797.2,322.1,797.2z"/>
		<path fill="#FDFDFD" d="M463.1,797.2c-0.9-8.9-3.8-17.4-6.3-25.9c-2.4-8.2-3-16.4-3.6-24.9c-0.1,1.9-0.2,3.8-0.3,5.1
			c-5.7-14.3-8.3-29.8-12.3-45c-4.1-15.4-8.2-30.8-11.4-46.4c-1.2-5.7,1.7-11.5,3.4-16.9c3.5-11.1,5-22.7,8.2-33.8
			c3.4-11.6,6.1-23.4,9-35.2c1.8-7.2,3.4-14.5,5.2-21.7c1.3-5.3,2.9-10.6,4.8-17.2c3.3,6.4,4.6,11.9,5.9,17.5
			c2.5,11.1,4.8,22.2,8.2,33.1c0.3,1.1,0.2,2.3,0.2,3.5c0,6.3,0.2,12.7,0,19c-1.8,62.9-0.7,125.9-1,188.8
			C469.8,797.2,466.5,797.2,463.1,797.2z M451.4,735c0.3,0,0.6,0,0.9,0c0-39.5,0-79,0-118.6c-0.3,0-0.6,0-0.9,0
			C451.4,656,451.4,695.5,451.4,735z M471.7,598c-0.2,0-0.5,0-0.7-0.1c0,29.6,0,59.3,0,88.9c0.2,0,0.5,0,0.7,0
			C471.7,657.2,471.7,627.6,471.7,598z M471.3,766.8c0.2,0,0.3,0.1,0.5,0.1c0-12.8,0-25.6,0-38.4c-0.2,0-0.3,0-0.5,0
			C471.3,741.3,471.3,754.1,471.3,766.8z M453.9,699.6c-0.2,0-0.3,0-0.5,0c0,11.8,0,23.5,0,35.3c0.2,0,0.3,0,0.5,0
			C453.9,723.1,453.9,711.4,453.9,699.6z M471.9,695.4c-0.2,0-0.3,0-0.5,0c0,7.9,0,15.8,0,23.7c0.2,0,0.3,0,0.5,0
			C471.9,711.2,471.9,703.3,471.9,695.4z"/>
		<path fill="#FDFDFD" d="M90.1,797.2c-0.6-8.1-3.3-15.8-5.2-23.7c-1.3-5.3-2.8-10.5-4.1-15.8c-2.1-8.4-3.9-16.8-6.2-25.1
			c-1.2-4.5-0.3-8.9-0.4-13.3c-0.3-44.9-0.2-89.9-0.1-134.8c0-5.9,0.8-11.8,0.5-17.7c7.5,17,8.6,34.9,7.2,53.1c0.4,0,0.9,0,1.3-0.1
			c0-4,0-7.9,0-11.9c0-1-0.1-2.2,1.3-2.2c0.9,0,1.3,0.9,1.5,1.7c3.8,13.4,7.1,26.9,10.3,40.5c3.2,13.4,1,26.8,1.8,40.1
			c0.1,1.3,0.1,2.6,0.9,3.9c0-10.5,0-21.1,0-31.6c0.3,0,0.7-0.1,1-0.1c11.7,45.7,23.4,91.3,35.1,137
			C120.1,797.2,105.1,797.2,90.1,797.2z"/>
		<path fill="#FDFDFD" d="M299.1,797.2c0-26.3-0.8-52.7,0.2-78.9c1.5-40.6-0.4-81.2,1-121.8c1.2-34-0.1-67.9,0.9-101.8
			c0.6-19.3,0.8-38.6,0.9-57.9c0-0.9-0.3-2,1.1-3.1c2,4.8,2.8,9.7,3.9,14.5c1.8,8,3.6,16.1,5.9,24c3.6,12.5,8.4,24.7,8,38
			c-1.6,61.6-0.2,123.2-1.3,184.8c-0.6,34.1-0.2,68.2-0.7,102.3C312.5,797.2,305.8,797.2,299.1,797.2z"/>
		<path fill="#FDFDFD" d="M297.1,0.2c-0.3,17.4,0,34.9-1.2,52.3c-1.4,21-0.3,41.9-0.8,62.8c-0.1,4.7,0.9,9.2,1.1,13.9
			c1,21.6-2.9,43.1-2.1,66c-3.1-7.2-3.8-13.8-5.6-20c-4.4-14.7-7.8-29.8-11.5-44.7c-4.3-17.2-8.4-34.4-12.8-51.5
			c-6.2-24.1-13-48-18.2-72.3c-0.5-2.2-2.4-4-1.9-6.6C261.8,0.2,279.5,0.2,297.1,0.2z"/>
		<path fill="#FDFDFD" d="M505.1,797.2c0.6-9.9,4.6-18.9,7.2-28.2c0.4-1.5,1.1-2.8,1.3-4.5c0.3-3.5,1.2-6.9,3.1-10.3
			c3.4-6.1,4.1-13.3,4.6-20.3c0.2-2.8,1.8-4.8,2.4-7.3c8-34.2,16.6-68.3,25.8-102.2c2.3-8.6,4.4-17.3,6.6-26.2c1.7,1.4,1,2.9,1,4.2
			c0.1,48.8,0.2,97.6,0,146.5c-0.1,10.5-4.5,20.4-6.8,30.5c-1.4,6-2.7,11.9-4.1,17.9C532.5,797.2,518.8,797.2,505.1,797.2z"/>
		<path fill="#FDFDFD" d="M211.1,797.2c1.2-98.7,2.3-197.3,3.1-296.2c1.5,5.9,3,11.9,4.6,17.8c4.4,16.8,8.9,33.5,13,50.4
			c1.5,6.2,2.6,12.6,2.4,19.2c-1.4,51.1-0.9,102.2-1.3,153.3c-0.1,8.4-4.3,16.2-7.1,24.2c-3.7,10.4-7.2,20.9-10.7,31.3
			C213.8,797.2,212.5,797.2,211.1,797.2z"/>
		<path fill="#FDFDFD" d="M293.1,797.2c-0.7-9-4.1-17.3-6.2-26c-4.7-19.3-9.5-38.6-14.8-57.8c-3.3-12-5.3-24.3-9.7-36
			c-1.7-4.5,0.4-8.6,2.1-12.4c4.2-9.6,6.6-19.8,10.1-29.6c5.8-16.4,11.4-32.9,17.2-49.3c1.1-3.1,1.2-6.5,3.8-10.2
			c0.6,3.8,1.6,6.7,1.6,9.7c0.1,30.7,0.1,61.3,0,92c0,0.5-0.2,0.9-0.9,1.4c0-12.5,0-25,0-37.5c-1.2,51.9,1.6,103.8-1.1,155.7
			C294.5,797.2,293.8,797.2,293.1,797.2z"/>
		<path fill="#FDFDFD" d="M558.1,0.2c0,35.2-0.3,70.3,0.1,105.5c0.2,12.9-1.5,25.4-4.6,37.8c-2,8.1-5.2,15.8-5.6,24.3
			c-0.6,0-1.1,0-1.7,0c-2.1-7.5-4.5-15-6.1-22.7c-1.6-7.7-3.4-15.5-4.8-23.2c-0.9-4.6-3.7-9.6-4.6-14.6c-1.3-7-3.9-13.9-1.9-21.5
			c1-3.9,0.2-8.2-0.8-12.3c0,3.6,0,7.1,0,10.7c0,0.9,0.2,2.2-1,2.5c-1.2,0.2-1.8-0.8-2.1-1.8c-1.8-6-3.9-12.1-2.4-18.5
			c1.3-5.8,2.8-11.4,5.6-18c0,7.3,0,13.5,0,19.7c0.3,0,0.6,0,1,0c0-6.3,0.3-12.5-0.1-18.8c-0.5-9.3,2.3-18.1,4.6-26.9
			c1.9-7.4,3.9-14.7,5.4-22.2C545.5,0.2,551.8,0.2,558.1,0.2z"/>
		<path fill="#FDFDFD" d="M213.1,0.2c0,28.6,0.8,57.3-0.2,85.9c-1,27.5-0.3,54.9-0.8,82.3c-0.1,4.7-2.2,9-3.5,14.6
			c-1.6-5.7-2.9-10.4-4.1-15.2c-5.6-21.8-11.1-43.7-17-65.4c-0.7-2.6,1.3-2.3,2.4-3.6c-2.4-0.6-3.7-2-4.3-4.3
			c-1.7-7.1-3.3-14.2-5.6-21.1c-2.1-6.4-0.3-12.3,1.2-18.2c3.7-14.5,8-28.9,12-43.3c1.1-3.8,1.9-7.7,2.8-11.6
			C201.8,0.2,207.5,0.2,213.1,0.2z"/>
		<path fill="#FDFDFD" d="M235.1,797.2c0-10.3-0.1-20.6,0-31c0.1-6.3,0.3-12.7,1.3-18.8c0.8-4.8,2.6-9.8,4.3-14.6
			c3.8-11.1,7.6-22.2,11.4-33.3c2.3-6.5,4.7-13,7.4-20.7c10.4,40.3,20.5,79.3,30.5,118.3C271.8,797.2,253.5,797.2,235.1,797.2z"/>
		<path fill="#FDFDFD" d="M57.1,797.2c-2.1-10.2-4.6-20.3-7.3-30.3c-4.5-16.6-8.6-33.3-13-49.9c-0.5-2.1-0.5-3.7,0.3-5.7
			c6.3-17.7,12.3-35.4,18.6-53c4.8-13.7,9.9-27.3,15.1-40.8c0.4,60,0.4,119.9-0.6,179.9C65.8,797.2,61.5,797.2,57.1,797.2z"/>
		<path fill="#FDFDFD" d="M498.1,0.2c0,25.6,0,51.3,0,76.9c0,2.7-1.1,5.5-0.8,7.8c0.6,5.1-0.6,10.1,0.2,15.3
			c1.2,7,1.1,14.3,0.4,21.4c-0.7,6.6-1.1,13.1-0.7,19.6c0.9,17-5.5,32.6-9,48.7c-2.1,9.7-4.7,19.3-7.1,29c-0.6,2.4-1.4,4.7-2,6.9
			c0-75.1,0-150.4,0-225.6C485.5,0.2,491.8,0.2,498.1,0.2z"/>
		<path fill="#FDFDFD" d="M324.1,0.2c0,33,0.3,65.9-0.2,98.9c-0.1,7-2.1,14-4.2,21c-4.3,14.3-10.7,27.8-14.5,42.1
			c-1.6,5.9-5.1,11-6.6,17c0.5-59.7,1-119.3,1.5-179C308.1,0.2,316.1,0.2,324.1,0.2z"/>
		<path fill="#FDFDFD" d="M420.1,797.2c-1.3-28.1-0.6-56.2-1.2-84.2c-0.3-13.2,2.5-25.7,5.8-38.2c0.7-2.6,1.3-5.3,2.3-8.9
			c2.8,6.4,3.4,12.5,4.8,18.2c4.4,17.5,8.2,35.1,12.7,52.6c2.6,10.1,4.8,20.2,7.1,30.3c1.9,8.4,5.1,16.7,6.9,25.3
			c0.3,1.6,0.3,3.3,0.5,4.9C446.1,797.2,433.1,797.2,420.1,797.2z"/>
		<path fill="#FDFDFD" d="M392.1,738.2c-0.5,19.7,1.1,39.4-1,59c-18.7,0-37.3,0-56,0c4.2-11.8,8.5-23.5,12.7-35.3
			c6.3-17.9,12.6-35.8,18.9-53.7c0.7-2,1.6-4,2.5-6c2.2,0,4.5,0.2,5-2.8c0.2-1,0.5-2,1.8-1.9c1.4,0.1,2.1,1.1,2.1,2.4
			c0,3.8,0.5,7.6-0.4,11.4c-1.5,6.2-3.5,12.5,0.8,18.5c0.3,0.4,0.1,1.4-0.2,1.8c-1.6,2.1-0.7,3.8,0.3,6c1.3,2.8,0.9,5.9,0.2,8.8
			c-0.3,1.3-2.3,1.8-2.4,3.6c-0.4,5.5,0.4,11.5-5.5,15c-0.3,0.2-0.5,0.9-0.4,1.3c0.8,2.7,2.1,5.2,5.3,5c3.1-0.2,7.6,1.8,8.4-3.6
			c1.2-7.9-1.5-15.9,0.6-24C386.1,738.2,386.4,736.8,392.1,738.2z"/>
		<path fill="#FDFDFD" d="M477.1,797.2c0-10.8,0-21.6,0-32.5c0-15.2,0.4-30.5-0.1-45.7c-0.5-14.1,1.4-27.7,5.1-41.3
			c4.2-15.7,8.1-31.4,12.1-47.1c0.3-1.1,0.8-2.1,2-3.1c0,56.6,0,113.2,0,169.7C489.8,797.2,483.5,797.2,477.1,797.2z"/>
		<path fill="#FDFDFD" d="M238.1,0.2c-2.1,24.8-0.7,49.6-0.9,74.4c-0.1,6.3-1.8,12.1-3.2,18.1c-2.1,8.2-4.7,16.2-6.8,24.3
			c-1.2,4.8-2.6,9.5-5.1,15.3c0-12.4,0-23.6,0-34.8c-2.2,19.6,2.2,39.8-6,59c0.3-52.2-0.5-104.3,1.1-156.3
			C224.1,0.2,231.1,0.2,238.1,0.2z"/>
		<path fill="#FDFDFD" d="M158.1,0.2c2.5,10,4.6,20.1,7.6,29.9c1.7,5.7,0.2,11.4,2.1,18.1c0.2-2.3,0.3-3.6,0.5-6
			c2.2,7.8,4.1,14.6,6,21.3c1,3.6-1,6.8-1.7,10c-1.4,6.1-2.3,12.8-5.2,18.1c-4.6,8.4-4,17.6-6.9,26.2c-3.1,8.9-5.2,18.2-7.9,27.2
			c-0.6,2,0.1,4.4-2.5,6.6c0-7.3-0.7-14,0.2-20.5c1.2-9.2,0.6-18.3,0.8-27.4c0.3-12.3-0.1-24.6,0.6-36.8c0.5-8.8-1.6-17.6-0.4-26.3
			c1.8-13.5,0.4-26.9,0.9-40.4C154.1,0.2,156.1,0.2,158.1,0.2z M165.1,90.2c-0.2-0.4-0.3-0.7-0.5-1c-0.2,0.4-0.4,0.8-0.5,1.3
			c0,0.3,0.2,0.6,0.4,0.8C164.8,90.9,165,90.5,165.1,90.2z"/>
		<path fill="#FDFDFD" d="M0.1,152.2c2.6-0.5,2.5-2.6,3.1-4.5c1.2-3.8,1.9-7.9,4.8-11.3c1.7,2,1.1,3.9,1.1,5.7
			C9.1,155.7,9.5,169.4,9,183c-2,56.2-0.3,112.4-1,168.6c-0.1,7.2-3.5,13.7-5.9,20.4c-0.3,0.9-1.2,1.1-2,1.2
			C0.1,299.6,0.1,225.9,0.1,152.2z"/>
		<path fill="#FDFDFD" d="M10.1,797.2c-1.9-10.5,4.2-19.2,7-28.5c4.2-13.9,9.9-27.4,14.2-41.3c0.4-1.4,0.3-3.9,2.4-3.8
			c2,0.1,1.2,2.4,1.6,3.7c1.9,6.7,4.1,13.4,5.7,20.2c3.8,16.6,9.6,32.8,12.2,49.7C38.8,797.2,24.5,797.2,10.1,797.2z"/>
		<path fill="#FDFDFD" d="M362.1,0.2c-6.7,18.1-12.7,36.5-19.4,54.7c-4.3,11.6-8.6,23.3-12.1,35.2c-0.4,1.3-0.4,3.7-2.2,3.5
			c-2.4-0.3-1.3-2.7-1.3-4.1c-0.3-29.8,1.7-59.5,1-89.2C339.5,0.2,350.8,0.2,362.1,0.2z"/>
		<path fill="#FDFDFD" d="M0.1,384.2c2.3-0.3,2.5-2.3,3-4c1.1-3.8,1.9-7.6,4.6-10.9c-0.2,76.6,1.4,153.1-0.9,231
			c-2.5-4.6-2.5-8.7-3.8-12.3c-0.8-2,0.2-4.9-2.9-5.7C0.1,516.2,0.1,450.2,0.1,384.2z"/>
		<path fill="#FDFDFD" d="M12.1,88.2c-0.9-29.3,1.6-58.7,0-88c4.7,0,9.3,0,14,0c3.1,12.9,6.2,25.8,9.4,38.7c0.5,1.8,0.9,3.7,0.3,5.4
			c-4.5,13-9.2,26-13.8,38.9C19.8,86.9,16,87.7,12.1,88.2z"/>
		<path fill="#FDFDFD" d="M144.1,797.2c-0.3-23.8,1.4-47.6,1.2-71.4c-0.1-8.5,0-17,0.9-25.7c8.6,32.4,17.3,64.7,25.9,97.1
			C162.8,797.2,153.5,797.2,144.1,797.2z"/>
		<path fill="#FDFDFD" d="M0.1,596.2c3.4,0.6,2.2,3.8,2.9,5.7c2.3,5.8,4.1,11.9,4.1,18.2c0,59,0,118,0,177.1c-7,0-7,0-7-7
			C0.1,725.6,0.1,660.9,0.1,596.2z"/>
		<path fill="#FDFDFD" d="M564.1,558.2c-3.5-3.1-4-7.2-4-11.5c0-51.3,0-102.6,0-153.9c0-47.8,0-95.6,0-143.4c0-1.9-0.5-3.9,0.6-5.7
			c2.2,1,0.3,4.5,3.3,4.5C564.1,351.6,564.1,454.9,564.1,558.2z"/>
		<path fill="#FDFDFD" d="M9.1,0.2c0,38.7,0,77.3,0,116c0,8.9-3.8,16.8-7,24.8c-0.3,0.9-1.2,1.1-2,1.2c0-45.7,0.1-91.3-0.1-137
			c0-4.2,0.9-5.8,5.1-5C6.4,0.4,7.8,0.2,9.1,0.2z"/>
		<path fill="#FDFDFD" d="M535.1,0.2c-1.3,12.1-5.9,23.4-8.3,35.3c-1.4,7.1-3.7,14.1-5.6,21.1c-0.2,0.9-0.1,2.3-1.5,2.1
			c-1.1-0.1-1.3-1.3-1.6-2.3c-3.3-10.9-5-22.3-8.3-33.2c-2.3-7.6-3.7-15.4-5.8-23C514.5,0.2,524.8,0.2,535.1,0.2z"/>
		<path fill="#FDFDFD" d="M395.1,797.2c0.4-9.4,4-18.1,6.2-27.1c0.4-1.6,0.8-3.2,1.2-4.9c0.4,0.6,0.8,1.2,1.2,2
			c0.6-18.8,8.7-35.7,12.4-53.7c0,27.9,0,55.9,0,83.8C409.1,797.2,402.1,797.2,395.1,797.2z"/>
		<path fill="#FDFDFD" d="M192.1,0.2c-1.1,9.9-5.3,19.1-7.5,28.8c-2.2,9.5-5.1,18.8-8.1,29.6c-4.7-20.4-11.2-39-14.4-58.4
			C172.1,0.2,182.1,0.2,192.1,0.2z"/>
		<path fill="#FDFDFD" d="M561.1,797.2c-1.3-76.9-0.9-153.9-1-231c3.1,1.6,0.3,6,4,7c0,73.3,0,146.7,0,220
			C564.1,795.3,565.1,798.2,561.1,797.2z"/>
		<path fill="#FDFDFD" d="M476.1,0.2c0.4,24.9-0.5,49.8-1.3,75.5C469.4,53,464.2,30.9,459,8.9c-0.7-2.9-2.4-5.5-1.9-8.6
			C463.5,0.2,469.8,0.2,476.1,0.2z"/>
		<path fill="#FDFDFD" d="M149.1,0.2c0,8.2,0.1,16.3,0,24.5c-0.3,13.7-1.8,27.4-0.7,41.6c-3.1-2.5-2.1-5.7-2.8-8.3
			c-4.7-17.8-9.3-35.6-13.8-53.4c-0.4-1.4-0.5-2.9-0.7-4.4C137.1,0.2,143.1,0.2,149.1,0.2z"/>
		<path fill="#FDFDFD" d="M51.1,0.2c-2.9,12-8.4,23.2-12.7,35.3C35.3,23.8,32.2,12,29.1,0.2C36.5,0.2,43.8,0.2,51.1,0.2z"/>
		<path fill="#FDFDFD" d="M564.1,233.2c-3.6-2.2-3.9-6-3.9-9.5c-0.2-20-0.7-40,0.2-59.9c0.5-11.5,0.3-22.9,0.8-34.4
			c0.1-2.9-0.5-6.4,3-8.2C564.1,158.6,564.1,195.9,564.1,233.2z"/>
		<path fill="#FDFDFD" d="M74.1,797.2c0-15.7,0-31.4,0-47c0.4,0,0.8-0.1,1.2-0.1c4.7,15.5,8.2,31.3,11.8,47.2
			C82.8,797.2,78.5,797.2,74.1,797.2z"/>
		<path fill="#FDFDFD" d="M564.1,106.2c-3.3,1.8-3-0.2-3-2.5c0.1-34.5,0-69,0-103.5c3.4-0.9,3,1.3,3,3.5
			C564.1,37.9,564.1,72.1,564.1,106.2z"/>
		<path fill="#FDFDFD" d="M219.1,797.2c-0.1-4.8,2.6-8.9,4-13.2c2.6-8,4.7-16.1,9-25c0,13.7,0,26,0,38.3
			C227.8,797.2,223.5,797.2,219.1,797.2z"/>
		<path fill="#FDFDFD" d="M549.1,797.2c2.6-10.1,5.2-20.1,7.7-30.2c0.4,0,0.8,0.1,1.3,0.1c0,10,0,20,0,30
			C555.1,797.2,552.1,797.2,549.1,797.2z"/>
		<path fill="#FDFDFD" d="M170.9,557.2c-6-17.5-9.6-34.2-7.4-51.9c-0.5,0-0.9,0.1-1.4,0.1c0,4.9,0,9.7,0,14.6c-0.3,0-0.7,0-1,0
			c0-10.2,0-20.4,0-30.6c-0.3,0-0.6,0-0.9,0c0,7.6,0,15.1,0,23.2c-3.1-1.4-2.1-4-2.6-5.8c-2.8-10.1-5.5-20.2-7.8-30.3
			c-3.5-15.4-3.5-30.9-1.9-46.5c0-0.3,0.1-0.7,0.1-1c-1.4-12.7,3.2-24.3,6.4-36.1c10.1-37.9,20.5-75.7,30.9-113.6
			c4.9-17.7,9.6-35.5,15-53.1c2.8-9.3,4.9-18.9,8.2-29c2.4,5.7,3,10.9,4.3,15.9c2.9,11.5,5.8,23.1,8.8,34.6c4,15.5,8.7,31,12,46.7
			c3.1,14.9,2.9,30-1.3,44.9c-7.8,27.8-15.4,55.6-23.2,83.4c-7.2,25.6-14.8,51.2-21.8,76.9c-2.5,9.3-6.6,18.2-8.4,27.6
			C176.9,537.2,174.3,546.7,170.9,557.2z"/>
		<path fill="#FDFDFD" d="M454.1,488.2c-2.4-2.2-0.1-5.6-2-8l0,0c-3.2-8.5-5.5-17.2-7.6-26c-4-16.9-8.5-33.7-12.7-50.6
			c-3.4-13.8-6.4-27.7-10.4-41.3c-0.4-1.2-0.3-2.6-0.3-4c0-27.3-0.8-54.7,0.2-82c1.1-27.6,0.4-55.3,0.7-82.9
			c0.2-19.4-0.4-38.9,0.2-58.3c0.4-10.9,0.7-21.9,1.6-33c3.4,13.9,7,27.7,10.1,41.7c3.5,15.7,8.2,31,11.6,46.7
			c4.1,18.7,11.1,37,9.5,56.6c-0.1,0.8-0.2,1.7,0.7,2.2c0.3-0.1,0.6-0.1,0.8-0.3c1-1.1-1.6-3.3,0.9-3.6c2-0.2,1.9,2.1,2.2,3.4
			c3.5,14.3,6.9,28.7,10.4,43c0.9,3.9,1,8.2,2.3,11.5c2.7,6.9,1.6,13.3,0.7,20c-0.3,2.6,1.6,5,0.7,8c-0.6-0.9-0.9-1.6-1.3-2.2
			c3.1,13,1.4,26.1,1.5,39.2c0.2,29.1-0.1,58.2,0.2,87.3c0.1,7.7-2.5,14.7-4.2,21.9c-3.1,12.7-5.4,25.6-10.1,38
			c-1.5-7-4.7-13.4-4.9-20.7C455,492.7,455.9,490.3,454.1,488.2L454.1,488.2z M452.4,415.1c0.2,0,0.3,0,0.5,0c0-26.6,0-53.1,0-79.7
			c-0.2,0-0.3,0-0.5,0C452.4,362,452.4,388.5,452.4,415.1z M454.5,441.5c0.2,0,0.4-0.1,0.6-0.1c0-16,0-31.9,0-47.9
			c-0.2,0-0.4,0-0.6,0C454.5,409.5,454.5,425.5,454.5,441.5z M454.9,457.8c-0.5,8.5-1.5,17.3,0,26.2
			C454.9,475.3,454.9,466.6,454.9,457.8z M472.3,318.9c0.2,0,0.3,0,0.5,0c0-3.1,0-6.2,0-9.3c-0.2,0-0.3,0-0.5,0
			C472.3,312.7,472.3,315.8,472.3,318.9z M452.6,318.9c0,0.2,0,0.4-0.1,0.6c0.1-0.1,0.2-0.2,0.2-0.3
			C452.8,319.1,452.7,319,452.6,318.9z"/>
		<path fill="#FDFDFD" d="M398.8,284.3c3.1,12.6,6.1,25.2,9.3,37.8c6.5,25.9,13.1,51.7,19.2,77.7c5.7,24,12.4,47.8,17.9,71.8
			c2.9,12.8,7.2,25.2,9,38.3c0.4,3.1,1.9,6,2.9,9c1.5,4.9,1.8,9.6-2.2,13.7c-0.5,0.5-0.8,1.5-0.8,2.2c-0.2,12.6-4.4,24.4-7.2,36.5
			c-5.4,23.2-11.6,46.3-17.5,69.4c-0.6,2.3,0.4,5.1-2.3,7.1c-2.4-2.7-2.8-6.4-3.6-9.5c-5.4-21.5-10-43.3-15.7-64.7
			c-3.5-13.1-6.6-26.4-10-39.5c-0.6-2.1-0.8-4.2-0.8-6.4c0-57.3-0.6-114.7,0.3-172C397.8,332,397.5,308.2,398.8,284.3z"/>
		<path fill="#FDFDFD" d="M290.4,369.4c-4.4-12.1-6.2-23.7-9.2-35c-5.9-21.9-11.7-43.9-17.4-65.9c-5.4-20.6-10.1-41.5-16-61.9
			c-2.6-9-3.1-18.4-6.8-27c-0.9-2.2-0.9-4.5-0.9-6.9c0-34.3-0.7-68.6,0.3-102.8c0.6-21.5,0.1-42.9,1.4-64.5c1.7,6.5,3.4,12.9,5,19.4
			c4,15.9,8.1,31.8,12.2,47.7c7.8,29.7,14.8,59.6,22.3,89.3c3.9,15.4,8.2,30.6,12.1,46c4.7,18.1,9,36.2,13.7,54.3
			c2.3,9,5,17.9,7.7,26.7c1.9,6.3-0.4,12-2.4,17.7c-5.2,15.4-10.6,30.7-16,46.1C294.6,357.8,292.6,363.1,290.4,369.4z M242.9,153.6
			c-0.2,0-0.3,0-0.5,0c0,8.1,0,16.2,0,24.3c0.2,0,0.3,0,0.5,0C242.9,169.8,242.9,161.7,242.9,153.6z"/>
		<path fill="#FDFDFD" d="M69.1,420.2c2.3-11,6.4-21.4,10.1-31.9c0.5-1.4,0.4-3.3,2.8-4.6c0,19.4,0,38.3,0,57.2c0.4,0,0.7,0,1.1,0
			c0-21.5,0-43,0-64.5c0.2,0,0.4,0,0.7-0.1c0.2,0.9,0.5,1.7,0.5,1.9c4.1-21.7,14-42,20.9-64.7c2.4,6.7,3.8,12,3.9,17.6
			c0.1,40,0.9,80-0.2,120c-1.3,48,0.5,95.9-1,143.8c-0.8,25.3,0,50.6-0.9,75.8c-9.4-19.5-8-40.6-8.8-61.4c0,9.2,0,18.5,0,27.7
			c-0.4,0-0.7,0-1.1,0c0-15.4,0-30.7,0-46.1c-0.3,0-0.7,0-1,0c0,12.7,0,25.3,0,38c-5.8-22.3-14.1-43.8-13.1-67.5
			c1.1-25.9,0.2-52,0.2-78c0-1.6,0-3.3,0-4.9c-0.3,0-0.5,0-0.8,0c0,32.4,0,64.9,0,97.3c-0.3,0-0.6,0.1-0.9,0.1
			c-0.8-2.9-1.7-5.7-2.3-8.6c-3.5-16.5-8.4-32.8-12.6-49.1c-2.6-10.2-4.6-20.7-8.1-30.7c-0.6-1.8-0.4-4-0.3-5.9
			c0.6-12.6-1.8-25.3,2-37.7c1.9-6.4,4.1-12.6,6-19C66.7,423,69.9,422.9,69.1,420.2L69.1,420.2z M98.6,598.9c0.5-1.9,0.8-3.7,0-5.9
			C97.9,595.2,98,597.1,98.6,598.9z"/>
		<path fill="#FDFDFD" d="M259.6,664.7c-2.1-7.9-4.3-15.8-6.3-23.8c-3.4-13.1-6.4-26.4-10.3-39.4c-5.3-17.9-7.3-35.9-5.5-54.4
			c0.5-5.3,0.4-10.7,0.6-16.1c0-0.9,0.6-1.8,1.8-2.8c0,3.6,0,7.1,0,10.7c0.4,0,0.8,0,1.2,0c0-5.9,0-11.8,0-17.7c0.3,0,0.7,0,1,0
			c0,7.6,0,15.1,0,22.7c0.3,0,0.7,0,1,0c0-6.4,0.4-12.9-0.1-19.3c-0.5-6.2,1.2-11.9,3.2-17.2c10.9-29.7,20.9-59.7,31.2-89.7
			c3.8-10.9,7.8-21.8,12.1-34c2.5,9.1,4.6,17,6.9,24.7c0.9,3,0.7,6,0.7,9c-0.1,17.2-0.8,34.4,0.2,51.5c1.5,27.3,0.2,54.6,0.8,81.9
			c0,1.7,0,3.3-0.6,5c-0.2-2.4-0.5-4.7-0.7-7.1c-0.3,7.4-0.4,14.5-3.1,21.6c-4.7,12.7-9.5,25.5-13.5,38.4c-3.6,11.5-7.6,23-12,34.2
			C265.4,650.3,263.2,657.6,259.6,664.7z M242.7,550.5c0.1-0.6,0.3-1.1,0.3-1.5c0-0.3-0.3-0.5-0.4-0.8c-0.1,0.4-0.4,0.9-0.4,1.3
			C242.2,549.7,242.5,550,242.7,550.5z"/>
		<path fill="#FDFDFD" d="M148.1,399.5c0-20.2-0.8-39.9,0.2-59.5c1.2-23.1,0-46.3,0.9-69.4c0.5-13.3-0.1-26.7,0.6-40
			c1-18.8,0.6-37.7,0.2-56.5c-0.2-7.4,1.4-14.3,3.5-21c5.3-17.1,9.7-34.4,14.6-51.6c2.7-9.4,5.3-18.8,8.3-29.5
			c4.3,17.4,8,33.6,12.4,49.5c6,21.7,11.5,43.6,16.8,65.5c1.6,6.7-1.6,12.4-3.2,18.4c-6.3,24.4-13.1,48.6-19.8,72.9
			c-5.2,19-10.4,38.1-15.7,57.1c-0.7,2.4-2.1,4.5-4.3,6c-0.3,0.2-0.5,0.8-0.4,1.2c1.7,11.6-4.3,21.6-6.5,32.4
			c-1.5,7.2-4.3,13.9-5.5,21.1C150,397.2,149.9,398.3,148.1,399.5z M164.9,305.4c-0.2,0-0.3,0-0.5,0c0,9.9,0,19.8,0,29.6
			c0.2,0,0.3,0,0.5,0C164.9,325.2,164.9,315.3,164.9,305.4z"/>
		<path fill="#FDFDFD" d="M477.1,680.9c0-19.9,0-39.9,0-59.8c0-45.2,0.4-90.3-0.2-135.5c-0.2-17.9,3.4-34.8,7.8-51.8
			c2-7.7,3.5-15.6,5.8-23.2c5.1-16.9,8-34.3,13-51.1c0.5-1.5,0.8-3.1,2.2-4.8c1.9,7.6,3.7,15.2,5.7,22.7
			c4.3,16.5,8.7,32.9,13.2,49.4c0.6,2.2,0.6,4.3,0.6,6.4c0,19.8,0,39.6,0.1,59.5c0,3.4-0.5,6.6-1.3,9.8
			c-5.6,21.1-10.7,42.4-16.2,63.6c-4.4,16.8-8.1,33.8-12.7,50.6c-5,18.2-9.4,36.5-14.1,54.8C480,674.7,479.7,678.3,477.1,680.9z"/>
		<path fill="#FDFDFD" d="M383.1,249.8c0-8.5,0-16.9,0-26.9c5.3,15.8,7.5,30.9,11.9,45.4c0.2,0.8,0.2,1.7,0.2,2.5
			c-0.6,19.4,1.5,38.9-1.6,58.3c-0.5,2.8,0.6,5.9,0.6,8.9c0,29.7,0.2,59.3-0.1,89c-0.1,14.8-1,29.6-1,44.4c0,8,1.5,16,0.9,23.9
			c-1.5,18.9-0.9,37.9-1.1,56.8c-0.3,20-0.1,40.1,0.4,60.2c0.2,8.4-1.4,16.2-4.6,23.7c-1.7,4.1-1.7,8.8-5.4,13c0-8.2,0-15.7,0-23.2
			c-0.5-0.1-1-0.1-1.6-0.2c2.6,19.9-0.7,38.6-9.4,55.1c-1.1-163.5,1.3-328,1.3-492.5C382.9,207.8,382.8,228.8,383.1,249.8z
			 M383.9,417.4c-0.2,0-0.3,0-0.5,0c0,25.9,0,51.8,0,77.7c0.2,0,0.3,0,0.5,0C383.9,469.2,383.9,443.3,383.9,417.4z M381.4,430.1
			c0.2,0,0.3,0,0.5,0c0-22.9,0-45.8,0-68.7c-0.2,0-0.3,0-0.5,0C381.4,384.3,381.4,407.2,381.4,430.1z"/>
		<path fill="#FDFDFD" d="M43.1,247.2c-1.9-8.7-0.9-17.6-1-26.4c-0.2-14.5,0-28.9,0-44.2c-1.5,2.2-1,3.9-1,5.4c0,21.2,0,42.3,0,63.5
			c0,3,2,7.2,1.4,8.3c-2.3,4.8-1.7,10-3.6,14.8c-5.3,13.4-9.8,27.2-14.8,40.8c-2,5.6-4.2,11.1-6.7,17.6c-2-8.8-5.5-16.2-5.5-24.7
			c0.2-54.5,0.4-109-0.1-163.4c-0.1-12.2,2.6-23.2,6.6-34.4c3.9-10.9,7.9-21.9,11.6-32.8c2.5-7.3,5.9-14.3,7.6-22.5
			c2.8,2.7,2.3,5.5,2.9,7.9c2,8.4,2.7,17,6.3,25.2c3.2,7.5,4,16.1,6.2,24c1.7,5.8,2.1,11.7,2.1,17.7c-0.1,31.5,0.5,63-0.3,94.5
			c-0.3,10.5-5.6,20.3-9.8,30C44.3,250.1,44.2,247.2,43.1,247.2L43.1,247.2z"/>
		<path fill="#FDFDFD" d="M257.1,257.2c-0.1,1.9,0.2,3.6,1,5.3c3.5,7.8,5.3,16,6.2,24.4c0.3,3.3,2.4,6,3.2,9.1
			c2.2,8.1,3.2,16.6,6,24.4c6.1,17.1,7.8,35.3,13.4,52.5c2,6.2-1.5,11.4-3.3,16.7c-7.7,22.4-15.4,44.8-23.2,67.2
			c-5.3,15.2-10.1,30.6-16,45.5c-1,2.4-3.2,4.4-3.2,7.4c0-12.1,0-24.2,0-36.2c-2.3,15.8,0.7,31.9-3.2,47.5c0-7.7,0-15.3,0-23
			c0-50.6-0.4-101.3,0.3-151.9c0.2-13.2,0.2-26.5,1.1-39.8c0.4-5.6-0.3-11.5-0.3-17.2c-0.2-28.3-0.1-56.6-0.1-85
			c0-5.1,1.3-10.1-0.2-15.3c2.3,0.4,1.9,1.8,2.2,2.8c4.9,15.5,2.6,31.4,3,47.1c0.1,2.6,0,5.3,1,7.9c0-5.5,0-10.9,0-16.4
			c0-3.3,0-6.7,0.1-10c0-0.9,0.2-1.8,1.2-1.9c1.4-0.2,1.5,0.9,1.7,1.9c2.3,10.1,4.1,20.3,7.8,30
			C256.7,252.7,255.2,255.3,257.1,257.2L257.1,257.2z"/>
		<path fill="#FDFDFD" d="M360.1,214c1.7-19.8-2.4-40,9.7-59c1.2,110.6-1.2,220.2-1.8,330.1c-2.3-8.8-4.6-17.6-6.9-26.3
			c-2.3-9-0.3-18.2-1.9-27.3c0,5.2,0,10.3,0,15.5c-0.4,0.1-0.7,0.1-1.1,0.2c-5.7-22.5-11.3-45-17.1-67.5
			c-4.8-18.7-9.8-37.3-14.3-56.1c-2-8.3-0.7-16.9-0.7-25.4c0-7.8-1.4-15.8,1.1-23.3c5.7-17.2,11.8-34.2,17.7-51.2
			c4.3-12.4,8.6-24.8,13-37.2c0.5-1.4,0.9-2.7,2.2-4C360.1,193,360.1,203.5,360.1,214z M362.4,344.1c0.2,0,0.3,0,0.5,0
			c0-39.9,0-79.8,0-119.7c-0.2,0-0.3,0-0.5,0C362.4,264.3,362.4,304.2,362.4,344.1z M359.8,409.5c-0.1,0-0.3,0-0.4,0
			c0,5.5,0,11,0,16.6c0.1,0,0.3,0,0.4,0C359.8,420.5,359.8,415,359.8,409.5z"/>
		<path fill="#FDFDFD" d="M527.1,389.2c-1.6-0.9-0.4-5-4.6-3.4c3.3,2.1,2.6,5.2,2.6,8.1c0,6.3,0,12.6,0,20.3
			c-2.8-6.4-2.8-12.3-4.6-17.6c-5.3-15.4-8.1-31.4-12.8-47c-0.7-2.3-0.8-4.6-0.3-6.9c5.3-21.2,10.6-42.5,15.9-63.7
			c6.7-26.8,13.3-53.7,19.9-80.5c1-3.9,2.3-7.8,4.3-11.7c1.8,7.8,3.5,15.6,5.6,23.3c2.4,9,5.2,18,4.3,27.3
			c-0.6,7.1,2.1,14.1-0.1,21.2c-0.5,1.5-0.2,3.3-0.2,5c0,27.8-0.5,55.6,0.2,83.4c0.4,16.8-1.7,33.1-6.4,49
			c-4.1,13.8-6.9,27.9-10.7,41.8c-1.4,5.2-3,10.5-4.5,15.8c-2.3-1-1.8-3.3-2.2-4.9c-3.4-12.8-6.7-25.7-5.4-39.2c0.1-1.4,0.4-3-1-4.2
			c0-0.7,0-1.3,0-2v0C529,398.6,528.2,393.9,527.1,389.2c0.3-0.4,1.2-0.5,0.3-1.2C527.4,388.4,527.2,388.8,527.1,389.2z"/>
		<path fill="#FDFDFD" d="M358.6,479.8c2.6-1.2,0.6-3.8,2.8-5.3c2.8,5.6,2.8,11.8,4.8,17.4c3.9,11.1,2.9,22.6,3,34
			c0,32.7,0,65.3,0,98c0,14,0,28.1-0.9,42.1c-2.2-7.9-6.1-15.2-6.1-23.5c0-3.4-2.4-6-3.3-9.2c-6.2-22.5-11.8-45.2-17.5-67.8
			c-5.3-21.2-10.9-42.3-16.5-63.4c-0.6-2.1-0.8-4.2-0.8-6.4c1-43.8,1.1-87.6,1-131.3c0-9.7,0-19.4,0-30.1c2.4,2.9,2.5,5.5,2.9,7.8
			c4.2,21,10.5,41.4,15.6,62.1c4.7,19.3,9.9,38.6,14.7,57.9C359.8,467.9,358.9,473.7,358.6,479.8z M359.4,599.1c0.2,0,0.3,0,0.5,0
			c0-35.6,0-71.1,0-106.7c-0.2,0-0.3,0-0.5,0C359.4,527.9,359.4,563.5,359.4,599.1z M361.8,529.4c-0.2,0-0.3,0-0.5,0
			c0,31.2,0,62.4,0,93.6c0.2,0,0.3,0,0.5,0C361.8,591.8,361.8,560.6,361.8,529.4z"/>
		<path fill="#FDFDFD" d="M84.1,238.2c0.8-2.2,1.2-2.1,2,0.1c2.7,7.5,4.2,15.3,6,23c2.8,12.4,6.4,24.7,9.5,37.1
			c1.6,6.6,1.2,12.4-0.9,18.4c-4.8,13.8-9.7,27.5-14.9,42.3c-0.5-1.9-0.8-2.8-1-3.8c-1.3,0.5,0.1,2.2-2,2.9c0-34.9,0-69.7,0-104.4
			c-0.2,0-0.4,0-0.6,0c0,37.7,0,75.5,0,113.2c0,2.6-0.6,4.8-1.5,7.2c-5.4,15.5-10.6,31.1-16,46.6c-1.4,4.2-3.3,8.2-5.9,12.1
			c0-99.7,0-199.3,0-299.4c2.1,1.2,1.5,3.3,1.9,4.8c7,26.6,13.8,53.2,20.7,79.8c1.1,4.2,0.6,8.3,0.7,12.4c0.1,3.8,0,7.5,0,11.7
			C83.8,241.1,82.5,239,84.1,238.2c0.3,0.3-0.4,1.3,0.7,1C84.6,238.9,84.3,238.6,84.1,238.2z M84.4,304.1c0.2,0,0.3,0,0.5,0
			c0-13.5,0-27.1,0-40.6c-0.2,0-0.3,0-0.5,0C84.4,277,84.4,290.5,84.4,304.1z M84.3,350.9c0.2,0,0.3,0,0.5,0c0-12.7,0-25.5,0-38.2
			c-0.2,0-0.3,0-0.5,0C84.3,325.4,84.3,338.1,84.3,350.9z"/>
		<path fill="#FDFDFD" d="M504.9,336.3c-2.9-9.8-5-19.4-4.9-29.8c0.4-40.6,0.2-81.3,0.1-121.9c0-5.5,0.3-10.9-0.1-16.3
			c-1.1-13.9,4.4-26.6,7.2-39.8c2.8-13.4,6.5-26.7,9.9-40c0.7-2.8,1.6-5.6,2.8-9.6c2.9,11.1,5.6,21.1,8.2,31.1
			c3.7,14.5,7.3,28.9,11,43.4c1.8,7.4,3.5,14.8,5.4,22.2c0.7,2.6-0.2,5-0.7,7.3c-4.3,17.4-9.1,34.6-13.2,52
			c-4.6,20-9.8,39.8-14.7,59.7C512.4,308.6,509.2,322.5,504.9,336.3z"/>
		<path fill="#FDFDFD" d="M34.4,707.7c-4.3-15.3-7.5-30.4-11.6-45.2c-3.5-12.8-6.1-25.8-10.8-38.2c-0.7-1.9-0.9-3.9-0.9-5.9
			c0-5.8,0.4-11.7-0.1-17.5c-0.8-11.3,1.4-21.9,5.4-32.5c7.6-20.5,14.4-41.3,21.5-62c0.4-1.1,0.5-2.3,1.8-3.2c0,26.3,0,52.3,0,78.8
			c2-1.6,1.3-3.5,1.3-5.2c0-22.7,0.3-45.3-0.1-68c-0.2-8.4,1.9-16,4.4-23.8c1.3-4.1,2.9-8.1,4.4-12.1c1.1-0.3,1.6,0.4,1.8,1.2
			c1.4,6.2,3.8,12.2,3.7,18.8c-0.2,45.4-0.3,90.8,0,136.3c0.1,16.4-2.5,32-9.4,47C41.3,686.2,39.9,697.3,34.4,707.7z M42.1,608.2
			c-2.5-4.7,0.1-9.9-1.7-15.6c0,16,0,31.1,0,46.2c0.7-5.8,0.5-11.6,0.7-17.4C41.3,617.1,40.2,612.5,42.1,608.2
			c1.1-1.3,1.7-2.7,1.2-4.8C41.5,605.1,42.4,606.8,42.1,608.2z M41.1,656.4c0.6,0,1.1,0,1.7,0c0-15,0-30,0-45
			C41.9,626.4,42.8,641.5,41.1,656.4z"/>
		<path fill="#FDFDFD" d="M418,344c-3.4-7.9-4.5-16.3-7-24.3c-2.7-8.7-3.5-17.7-6.3-26.4c-1.5-4.5-0.3-9.9-1.3-14.9
			c-0.2,1.8-0.3,3.6-0.6,6.8c-2.3-8.4-4.5-15.6-4.6-23c-0.2-26.7-0.9-53.4,0.1-80c1.3-33.1-0.4-66.3,1-99.4
			c0.9-22.3,0.2-44.6,0.8-66.9c0-1.4-0.6-3,1.2-4.4c3.2,9.9,4.9,20,7.4,29.8c3.8,14.4,7.4,28.9,10.7,43.5c1.3,5.8,0.9,11.7,0.4,17.4
			c-1.2,14.6-1.1,29.2,0,43.8c0.5,6.6-0.1,13.3-1.2,19.8c-0.4,2.9,0.5,5.3,0.5,8c-0.2,21.8,0.6,43.7-0.3,65.5
			c-1.4,34.1-0.3,68.3-0.8,102.4C418.1,342.6,418,343.3,418,344z M405.9,233.5c-0.1,0-0.3,0.1-0.4,0.1c0,12.4,0,24.8,0,37.2
			c0.1,0,0.3,0,0.4,0C405.9,258.4,405.9,246,405.9,233.5z M403.4,271.1c0.2,0,0.3,0,0.5,0c0-12.6,0-25.1,0-37.7c-0.2,0-0.3,0-0.5,0
			C403.4,246,403.4,258.5,403.4,271.1z"/>
		<path fill="#FDFDFD" d="M207.8,704.3c-3.7-15.1-7.4-30.1-11.2-45.2c-5.2-20.6-10.8-41-15.7-61.7c-1.5-6.3-4.8-12.3-4.1-19.1
			c0.2-2.1-2-4-2.7-6.3c-1.9-6.3,0.1-12.1,1.7-18c4.8-17.6,9-35.4,14.8-52.7c4.9-15,7.3-30.6,13.3-45.3c2.5-6,3.2-12.8,5.4-19.2
			c2.3,89.1-1.5,178.2,0.2,267.3C208.8,704.3,208.3,704.3,207.8,704.3z"/>
		<path fill="#FDFDFD" d="M11.1,572c0-1.5,0-3,0-4.5c0-65.8,0-131.6,0-197.5c0-8.2,0.7-16.4,3.9-24.2c0.5-1.2,0.5-2.6,2.4-3.1
			c5,18.7,10.2,37.3,14.8,56.1c4.6,18.9,9.7,37.6,14.6,56.4c1.4,5.3,2.7,10.4,0.2,15.9c-1.9,4.2-3.6,8.5-4.9,13
			c-1.2,3.8-0.6-2.3-2.1-0.2c1.7,10.6-5.1,19.3-8,29c-5.3,17.4-11.9,34.4-18,51.6C13.2,566.9,11.6,569.1,11.1,572z"/>
		<path fill="#FDFDFD" d="M136.6,226.9c3.1,12.5,7.5,25,8.8,37.7c1.6,16.1,1.6,32.5-0.1,48.7c-0.2,1.7-0.2,3.3-0.2,5
			c0,18.7,0,37.3,0,56c0,11.2,0.1,22.5-0.1,33.7c-0.2,8.7-2.4,17-5.3,26.7c-2.1-7.4-4.3-13.4-5.6-19.5c-2.6-12.5-6.4-24.6-9.5-36.9
			c-3.8-14.9-7.6-29.7-10.8-44.7c-2.1-9.8-0.5-19.9-0.7-29.9c-0.1-4.6-0.9-9.4,0.6-13.9c5.5-16.2,11.2-32.3,17.4-48.4
			c0,9.9,0,19.7,0,29.6c2.4-14.7-2-30,4.1-44.3C135.8,226.8,136.2,226.9,136.6,226.9z"/>
		<path fill="#FDFDFD" d="M50.8,458C45,434.8,40,412.8,34,391.1c-4.5-16.4-8.1-33.1-13.1-49.3c-1.8-6-0.5-11,1.4-16.3
			c5.7-16,11.3-31.9,17-47.9c0.1-0.3,0.4-0.5,0.9-1c2.1,3.4,0.1,7.2,1.7,10.5c-1.4-18.6,6.5-34.9,13-51.6c0,2.6,0.4,5.3-0.1,7.9
			c-0.5,2.7,0.4,5.3,0.4,7.9c-0.1,21.3-0.1,42.6-0.1,64c0,16.5,0,33,0,49.5c0,24.8-0.2,49.5,0.1,74.3
			C55.3,445.3,53.7,450.9,50.8,458z M43.3,310.8c0.2,0,0.3,0,0.5,0.1c0-11.8,0-23.5,0-35.3c-0.2,0-0.3,0-0.5,0
			C43.3,287.3,43.3,299.1,43.3,310.8z"/>
		<path fill="#FDFDFD" d="M491.1,391.2c-1,4.9-1.8,9.9-3,14.8c-2.7,11.2-5.6,22.4-8.5,34c-2.2-1.7-1.4-3.6-1.4-5.2
			c0-26.3,0-52.6,0-79c0-33.4,0.2-66.8-0.1-100.2c-0.1-11.8,2.6-23.1,5.7-34.2c2.7-9.7,4.8-19.6,7.4-29.4c1.6-6,3.3-11.9,6-17.6
			c0,1.4,0,2.9,0,4.3c0,30.6,0.3,61.3-0.2,91.9c-0.2,13,0.5,25.9,0.2,38.9c-0.3,13-0.2,26,0,39c0.2,13.8-0.3,27.4-5,40.6
			C491.9,389.8,491.5,390.5,491.1,391.2c-0.1-0.1-0.3-0.1-0.4-0.2C490.9,391.1,491,391.2,491.1,391.2z"/>
		<path fill="#FDFDFD" d="M421.1,673.2c0.4,4.8-1.9,9-3,13.5c-4.2,17.3-8.4,34.5-12.6,51.7c-0.1,0.6-0.4,1.1-1.4,1.6
			c0-14.9,0-29.7,0-44.6c-1.6,27,2.3,54.5-9.4,81.7c2-78.3,1.4-155.5,1.5-233.1c2.6,1.6,1.9,4,2.4,5.9c4.7,18.6,9.8,37.2,13.9,56
			c3.2,15.1,7.7,29.8,11.3,44.7C425.6,658.9,423.7,665.9,421.1,673.2c-0.1-0.1-0.3-0.1-0.4-0.2C420.9,673.1,421,673.2,421.1,673.2z
			 M403.3,687.9c0.2,0,0.3,0,0.5-0.1c0-2.7,0-5.5,0-8.2c-0.2,0-0.3,0-0.5,0C403.3,682.4,403.3,685.2,403.3,687.9z"/>
		<path fill="#FDFDFD" d="M234.6,343.3c1.7,73.3-0.8,145.4-0.5,217.6c-1.3,0.3-1.5-0.7-1.7-1.4c-4.5-17.3-8.8-34.7-13.5-52
			c-2.7-10.2-6.9-20.4-5.7-31.1c1.7-14.3,1.4-28.7,0.9-42.8c-0.4-12.5,1.7-24.2,5.2-35.7c4.1-13.6,7.2-27.6,11.6-41.1
			C232.4,352.8,233.2,348.6,234.6,343.3z"/>
		<path fill="#FDFDFD" d="M320.5,487c-4.8-19.4-9-39-14.7-58.1c-4.6-15.4-7.2-31.3-12.6-46.5c-2.1-6,0.3-11.1,2.1-16.3
			c5.3-15.2,10.7-30.3,16.1-45.5c1.9-5.4,4.9-10.5,5.4-17.3c5.1,8.8,2.4,17.4,4.1,25.6c0-3.2,0-6.3,0-9.5
			C322.9,375.3,319.9,431.1,320.5,487z"/>
		<path fill="#FDFDFD" d="M234,281.3c-1.2-4.1-2.4-8.2-3.5-12.3c-6.2-24.4-12-48.9-18.7-73.1c-2.4-8.5,1.7-15.2,2.9-22.7
			c0.8-4.7,2.1-9.5,3.7-13.9c7.7-21.5,11.1-44.1,18.7-65.7c-1.9,62.5-0.6,125.1-1.1,187.7C235.3,281.2,234.7,281.3,234,281.3z"/>
		<path fill="#FDFDFD" d="M318.9,134.6c0.1,3.3,0.3,5.8,0.4,8.4c1.8-5.9-0.8-12.4,2.4-18.1c2.1,0.6,1.4,2.2,1.4,3.3
			c0,35.3,0.6,70.6-0.2,105.9c-0.3,14.1-0.4,28.2-0.7,42.4c-0.1,2.9-1.2,5.3-3.2,8.9c0-12.8,0-24.3,0-35.9c-0.3,0-0.5,0-0.8,0
			c0,12.5,0,25.1,0,37.6c-0.3,0-0.7,0.1-1,0.1c-3.3-12.7-6.7-25.4-9.9-38.2c-2.6-10.2-5.3-20.4-7.6-30.8
			c-2.6-11.6-2.7-23.3,1.2-34.8c4.7-13.9,9.8-27.7,15.2-41.3C316.9,139.9,316.7,137.2,318.9,134.6z"/>
		<path fill="#FDFDFD" d="M130,464.9c0-2.4,0-4.9,0-7.3c-1.6,5.2-0.1,10.7-1.5,15.9c-4.5,16.8-9,33.6-13.5,50.5
			c-1,3.8-2.1,7.5-4,11.1c0.4-7,1-14,1-21c0.1-41.1-0.2-82.3,0.2-123.4c0.1-10.9,0.8-21.9,0.9-32.9c0-1.2-0.5-3,1.5-3.1
			c1.8-0.1,1.8,1.9,2.1,3c4.6,18.3,9.5,36.4,14,54.7c1.6,6.7,3.1,13.5,5.2,20.1c3.1,10.1-0.9,18.9-3.6,28.1
			C131.8,461.9,131.1,463.5,130,464.9z"/>
		<path fill="#FDFDFD" d="M385.1,112.2c0-6.7,2.2-12.9,4.8-18.9c1-2.3,1.7-4.7,2.7-6.9c0.4-0.9,0.8-2,2-1.9c1.5,0.2,0.9,1.3,0.9,2.3
			c1.3,23.4,1.2,47,0.3,70.4c-1.1,29.8-0.2,59.6-0.8,89.3c0,1.5,0,3-0.4,4.6c-2.4-6-3.8-12.4-5.4-18.6
			c-5.6-21.3-11.4-42.6-15.3-64.3c-2.1-11.6-2.7-24.1,2.5-35.6c1.7-3.7,2.5-7.5,3.6-11.4c0.6-1.9,0.2-5.1,3.2-4.7
			c2.8,0.4,1.6,3.2,1.7,5c0.1,12.5,0.1,24.9,1,37.4c0-5.7,0-11.3,0-17c0-8.2,0-16.3,0-24.5C386.1,115.7,386.7,113.7,385.1,112.2
			L385.1,112.2z"/>
		<path fill="#FDFDFD" d="M146.4,641.3c-1.5-53.9,1.2-106.9,1.4-160.1c3.5,20.4,13.5,39.4,13,60.7c0.2-1.8,0.3-3.6,0.5-5.4
			c-0.2,4.4,2.3,7.8,3.8,11.5c4.6,11.6,3,22.6-0.8,34.3c-5.8,17.7-10.1,35.9-15.1,53.9C148.8,637.8,148.6,639.5,146.4,641.3z"/>
		<path fill="#FDFDFD" d="M11.4,632.3c5.4,21.2,10.5,41.3,15.7,61.5c0.9,3.5,1.7,7.1,3.1,10.5c3.1,8.1,1,15.5-1.8,23.1
			C23.2,741,18,754.7,13.8,768.6c-0.4,1.3-0.8,3.4-2.7,2.9c-1.6-0.4-0.9-2.3-0.9-3.5c0-28-0.8-56,0.3-83.9
			C11,667.2,10.4,650.3,11.4,632.3z"/>
		<path fill="#FDFDFD" d="M236.4,734.6c0.6-46.9-1.3-93.8,0.6-140.7c1.5-0.2,1.8,1,2,2.1c2.3,13.2,6.1,26,9.7,38.8
			c2.8,9.9,4.3,20.1,7.6,29.8c2.3,6.9,0.3,12.4-1.9,18.5c-4.7,12.9-8.8,26.1-13.3,39.1C239.7,726.3,237.9,730.4,236.4,734.6z"/>
		<path fill="#FDFDFD" d="M556.8,536.4c-2.5-10-5-18.7-7.3-27.4c-3-11-5.3-22.2-8.9-33.1c-3-9.2-3-18.3-0.1-27.7
			c3.5-11.2,5.8-22.7,8.7-34.1c2.4-9.2,4.9-18.4,7.6-28.5C556.8,436.1,556.8,485.6,556.8,536.4z"/>
		<path fill="#FDFDFD" d="M114.1,274.2c0-43.3,0-86.7,0-130.9c2.6,2.3,2.4,4.8,3,6.8c4.6,18.1,9.1,36.2,13.6,54.3
			c0.8,3.2,1,6.5,1.5,9.8c-1.9,2.5-0.8,5.2,0,7.8c0-2.6,0-5.2,0-7.8c2.7,2.6,2.3,5.6,1.2,8.8c-5.2,14.9-10.3,29.9-15.6,44.8
			C116.9,270.1,116.8,273,114.1,274.2L114.1,274.2z"/>
		<path fill="#FDFDFD" d="M58.8,636.6c-0.3-42.3-1.3-84.6,0.9-126.8c3.3,4.2,3.8,9.1,5,13.8c2.2,8.3,4.1,16.7,6,25.1
			c0.4,1.6,0.4,3.3,0.4,4.9c0,12.2-0.7,24.4,0.2,36.5c0.9,12.4-3,23.4-7,34.6C62.9,628.7,61.8,633,58.8,636.6z"/>
		<path fill="#FDFDFD" d="M501.7,8.2c2.9,10.9,7.1,21.4,8.5,32.6c0.7,5.3,2.6,10.5,4.5,15.6c3.4,9.4,2.9,18.6,0.2,28.1
			c-4.7,16.8-8.7,33.7-13,50.6c-0.1,0.4-0.5,0.8-1.4,1.2C501.3,93.6,501.2,50.9,501.7,8.2z"/>
		<path fill="#FDFDFD" d="M392.1,738.2c-5.7-1.4-6-0.1-7.4,5.2c-2.2,8.1,0.6,16.1-0.6,24c-0.8,5.4-5.2,3.4-8.4,3.6
			c-3.3,0.3-4.5-2.3-5.3-5c-0.1-0.4,0.1-1.2,0.4-1.3c5.9-3.5,5.1-9.5,5.5-15c0.1-1.8,2.1-2.2,2.4-3.6c0.7-2.9,1.1-6-0.2-8.8
			c-1-2.1-1.9-3.8-0.3-6c0.3-0.4,0.5-1.4,0.2-1.8c-4.3-6-2.4-12.2-0.8-18.5c0.9-3.8,0.4-7.6,0.4-11.4c0-1.3-0.7-2.3-2.1-2.4
			c-1.3-0.1-1.6,0.9-1.8,1.9c-0.5,3-2.8,2.8-5,2.8c2.9-11.7,8.2-22.5,11.6-34c0.7-2.3,1.6-0.3,2.4,0c0.4,7.7-0.2,15.5,0.6,23.3
			c0.6,5.5,3.1,6.2,7.4,5.7C392.8,710.9,391.9,724.6,392.1,738.2z"/>
		<path fill="#FDFDFD" d="M44.4,46.8c0.4-3.1,1.7-6.4-0.8-9.3c-0.7-0.8-0.4-1.9-0.1-2.9c3.6-10.4,7.2-20.9,11.4-31.2
			c0,32.1,0,64.3,0,96.4c-2.9-13.2-8.6-25.8-9.7-39.4c-0.3-3.8-2.3-7.1-3.1-10.7c-0.2-1-0.7-1.8-1-2.8c-0.6-2.1-1.5-4.2,0.4-6
			c0.5-0.5,1.3-0.7,1.8-0.2c1.5,1.5,0.6,3.5,0.9,5.2C44.2,46.2,44.3,46.5,44.4,46.8z"/>
		<path fill="#FDFDFD" d="M473.1,570.2c-2-8.4-4.2-16.9-5.8-25.4c-0.4-2.4-1.4-4.4-2.2-6.5c-3.4-8.9-2.8-17.8,0.1-26.7
			c3.1-9.6,5.4-19.4,7.1-29.3c0.2-1,0.3-2.3,1.7-3.1c0,30.4,0,60.6,0,90.8C473.7,570.1,473.4,570.2,473.1,570.2z"/>
		<path fill="#FDFDFD" d="M556.8,210.3c-2.5-10-5.3-20-7.5-30c-1-4.8,0.8-9.5,2-14.2c1.8-7.3,4.5-14.4,6.3-21.9c0,22,0,44.1,0,66.1
			C557.3,210.3,557,210.3,556.8,210.3z"/>
		<path fill="#FDFDFD" d="M391.1,697.2c-4.3,0.5-6.8-0.2-7.4-5.7c-0.9-7.8-0.2-15.5-0.6-23.3c0-0.3,0-0.7,0-1c2.8-1.3,2.8-2.7,0-4
			c0-1.1-0.1-2.3,1-3c3.2-0.4,4.2-4.9,8-4c0,11.6,0,23.2,0,34.7C392.1,693.1,392.3,695.3,391.1,697.2z"/>
		<path fill="#FDFDFD" d="M145.1,202.2c2.3,15.9,0.8,31.9,0.4,47.8c-1.9-7.4-3.4-15.1-5.9-22.3c-2.7-7.7,0.2-14.2,2.7-20.9
			C143,205.2,144.2,203.8,145.1,202.2L145.1,202.2z"/>
		<path fill="#FDFDFD" d="M528.2,481.1c0-13,0-24.8,0-36.7C534.7,454.6,534.8,466.1,528.2,481.1z"/>
		<path fill="#FDFDFD" d="M12.1,88.2c3.9-0.5,7.7-1.3,10-5c-1.7,9.2-6.5,17.2-8.6,26.3c-0.5-0.1-0.9-0.2-1.4-0.3
			C12.1,102.3,12.1,95.2,12.1,88.2z"/>
		<path fill="#FDFDFD" d="M392.1,656.2c-3.8-0.9-4.9,3.6-8,4c1-7.2,5-13.4,6.5-20.5c0.5,0,1,0.1,1.5,0.1
			C392.1,645.3,392.1,650.8,392.1,656.2z"/>
		<path fill="#FDFDFD" d="M526.4,489c0-17.5,0-34.9,0-52.4c0.1,0,0.3,0,0.4,0c0,17.5,0,34.9,0,52.4C526.6,489,526.5,489,526.4,489z"
			/>
		<path fill="#FDFDFD" d="M11.2,343.3c0.4-6.6,0.7-13.1,1.2-20.5C15.4,330.3,15.8,336.8,11.2,343.3z"/>
		<path fill="#FDFDFD" d="M144,433.5c0,5.5,0,11,0,17.8C140.2,444.5,140.7,439,144,433.5z"/>
		<path fill="#FDFDFD" d="M500.3,354.9c0-7.1,0-13.3,0-20.4C502.6,341.6,504,347.8,500.3,354.9z"/>
		<path fill="#FDFDFD" d="M109.5,302.7c0.8,5.3,0.7,9.4-0.1,13.5C107.7,312.2,105.8,308.1,109.5,302.7z"/>
		<path fill="#FDFDFD" d="M298.2,444.8c0-9.4,0-18.7,0-28.1c0.2,0,0.3,0,0.5,0c0,9.4,0,18.9,0,28.3
			C298.6,444.9,298.4,444.8,298.2,444.8z"/>
		<path fill="#FDFDFD" d="M473.4,286.9c0-6.8,0-13.7,0-20.5c0.2,0,0.3,0,0.5,0c0,6.8,0,13.7,0,20.5
			C473.7,286.9,473.5,286.9,473.4,286.9z"/>
		<path fill="#FDFDFD" d="M473.9,249c1.7,2.5,1.2,5,0.4,7.5C472.5,254.1,473.3,251.5,473.9,249z"/>
		<path fill="#FDFDFD" d="M526.9,405.2c0,4.9,0,9.9,0,14.8c-0.1,0-0.2,0-0.3,0c0-4.9,0-9.9,0-14.8
			C526.7,405.2,526.8,405.2,526.9,405.2z"/>
		<path fill="#FDFDFD" d="M145.1,202.2c0.2-2.1-0.5-4.4,1-7.1C147.6,198.3,146.4,200.3,145.1,202.2
			C145.1,202.2,145.1,202.2,145.1,202.2z"/>
		<path fill="#FDFDFD" d="M456.7,236.5c-0.2,2.2,1.9,4,0.4,6.8C455.6,240.7,456.2,238.5,456.7,236.5z"/>
		<path fill="#FDFDFD" d="M146.1,643.8c1.5,1.1,1,2.2,0.4,3.4c-0.3,0-0.8,0.2-0.9,0.1C145,646,144.8,644.8,146.1,643.8z"/>
		<path fill="#FDFDFD" d="M83.4,228.6c0.9,1.7,0.9,3.6,0,5.5C83.4,232.3,83.4,230.4,83.4,228.6z"/>
		<path fill="#FDFDFD" d="M454.3,212c-0.3-1.3-0.5-2.7-0.8-4C455.4,209,455.2,210.6,454.3,212z"/>
		<path fill="#FDFDFD" d="M383.1,663.2c2.8,1.3,2.8,2.7,0,4C383.1,665.9,383.1,664.6,383.1,663.2z"/>
		<path fill="#FDFDFD" d="M526,398.3c0.2-2.7,0.3-3.9,0.4-5.8C527.3,394.6,527.4,395.9,526,398.3z"/>
		<path fill="#FDFDFD" d="M83.6,599.1c0.7,1,0.8,2.6,0.2,2.7c-1.2,0.4-0.5-0.9-0.7-1.5C83.1,600,83.4,599.6,83.6,599.1z"/>
		<path fill="#FDFDFD" d="M113.7,348.2c0.6,1.1,0.7,2.1-0.1,3.2C113,350.2,112.9,349.2,113.7,348.2z"/>
		<path fill="#FDFDFD" d="M394.8,81.7c0-0.3-0.3-0.8-0.1-1.1c0.1-0.3,0.7-0.4,1.1-0.5c0.1,0.3,0.3,0.6,0.2,0.9
			C395.8,81.5,395.6,81.9,394.8,81.7z"/>
		<path fill="#FDFDFD" d="M84.2,363.1c-0.2,0.3-0.4,0.8-0.6,1.2c-0.1-0.3-0.4-0.6-0.4-0.8c0.1-0.4,0.3-0.9,0.5-1.3
			C83.8,362.4,83.9,362.7,84.2,363.1z"/>
		<path fill="#FDFDFD" d="M385.1,112.2c-0.1,0.6-0.1,1.3-0.9,1.5c-0.2,0-0.6-0.4-0.5-0.5C383.8,112.3,384.5,112.3,385.1,112.2
			C385.1,112.2,385.1,112.2,385.1,112.2z"/>
		<path fill="#FDFDFD" d="M114.1,274.2c0,0.9,0,1.9,0,3.2C112.5,276,113.3,275.1,114.1,274.2C114.1,274.2,114.1,274.2,114.1,274.2z"
			/>
		<path fill="#FDFDFD" d="M527.1,403.2c-0.3-0.5-0.6-1.1-0.9-1.6c0.2-0.1,0.4-0.2,0.6-0.3C527,402,527,402.6,527.1,403.2
			L527.1,403.2z"/>
		<path fill="#FDFDFD" d="M454.1,488.2c-0.1,0.6-0.2,1.3-0.2,1.9c-0.2-0.1-0.4-0.2-0.6-0.3C453.6,489.3,453.8,488.8,454.1,488.2
			L454.1,488.2z"/>
		<path fill="#FDFDFD" d="M459.7,533.9c0.1,0.1,0.2,0.2,0.2,0.4c0,0.1-0.2,0.2-0.2,0.3C459.6,534.3,459.6,534.1,459.7,533.9z"/>
		<path fill="#FDFDFD" d="M327.5,97c0.1,0,0.3,0.1,0.3,0.1c0,0.1-0.1,0.3-0.1,0.4c-0.1,0-0.3-0.1-0.3-0.1
			C327.4,97.2,327.5,97.1,327.5,97z"/>
		<path fill="#FDFDFD" d="M323.6,120.9c0.1,0.1,0.2,0.2,0.2,0.3c0,0.1-0.2,0.2-0.2,0.3C323.6,121.3,323.6,121.1,323.6,120.9z"/>
		<path fill="#FDFDFD" d="M8.6,132.9c0.1,0.1,0.2,0.2,0.2,0.4c0,0.1-0.2,0.2-0.2,0.3C8.6,133.3,8.6,133.1,8.6,132.9z"/>
		<path fill="#FDFDFD" d="M69.1,420.2c-0.2-0.3-0.5-0.7-0.7-1C69.5,418.9,68.9,419.9,69.1,420.2C69.1,420.2,69.1,420.2,69.1,420.2z"
			/>
		<path fill="#FDFDFD" d="M452.1,480.2c-0.1,0.4-0.2,0.8-0.4,1.2C450.9,480.8,451.8,480.6,452.1,480.2
			C452.1,480.2,452.1,480.2,452.1,480.2z"/>
		<path fill="#FDFDFD" d="M245.9,215.8c0-0.1,0.1-0.2,0.1-0.3c0.1,0,0.3,0.1,0.4,0.2c0,0-0.1,0.2-0.1,0.3
			C246.1,215.9,246,215.9,245.9,215.8z"/>
		<path fill="#FDFDFD" d="M43.1,247.2c-0.1,0.1-0.1,0.3-0.2,0.4C43,247.5,43,247.4,43.1,247.2C43.1,247.2,43.1,247.2,43.1,247.2z"/>
		<path fill="#FDFDFD" d="M257.1,257.2c0.1-0.1,0.1-0.3,0.2-0.4C257.3,257,257.2,257.1,257.1,257.2
			C257.1,257.2,257.1,257.2,257.1,257.2z"/>
		<path fill="#EDEDED" d="M453.4,191c0-20.5,0-41.1,0-61.6c0.2,0,0.3,0,0.5,0c0,20.5,0,41.1,0,61.6C453.7,191,453.5,191,453.4,191z"
			/>
		<path fill="#EDEDED" d="M453.5,199c0.1,0,0.2,0.1,0.3,0.1c0,0.1-0.1,0.3-0.1,0.4c0,0-0.2-0.1-0.3-0.1
			C453.4,199.2,453.5,199.1,453.5,199z"/>
		<path fill="#EDEDED" d="M82.8,54.4c0,27.7,0,55.4,0,83.1c-0.2,0-0.4,0-0.7,0c0-27.7,0-55.4,0-83.1C82.3,54.4,82.5,54.4,82.8,54.4z
			"/>
		<path fill="#EDEDED" d="M82.4,164c0-4.5,0-9.1,0-13.6c0.2,0,0.3,0,0.5,0c0,4.5,0,9.1,0,13.6C82.7,164,82.5,164,82.4,164z"/>
		<path fill="#EDEDED" d="M82.8,49.3c-0.1,0.1-0.2,0.2-0.3,0.3c-0.1-0.1-0.2-0.2-0.2-0.4c0-0.1,0.2-0.2,0.2-0.3
			C82.7,49,82.8,49.2,82.8,49.3z"/>
		<path fill="#EDEDED" d="M160.3,734.8c0-12.4,0-24.9,0-37.3c0.2,0,0.3,0,0.5,0c0,12.5,0,24.9,0,37.4
			C160.6,734.9,160.5,734.9,160.3,734.8z"/>
		<path fill="#EDEDED" d="M451.4,735c0-39.5,0-79,0-118.6c0.3,0,0.6,0,0.9,0c0,39.5,0,79,0,118.6C451.9,735,451.6,735,451.4,735z"/>
		<path fill="#EDEDED" d="M471.7,598c0,29.6,0,59.2,0,88.9c-0.2,0-0.5,0-0.7,0c0-29.6,0-59.3,0-88.9C471.3,598,471.5,598,471.7,598z
			"/>
		<path fill="#EDEDED" d="M471.3,766.8c0-12.8,0-25.5,0-38.3c0.2,0,0.3,0,0.5,0c0,12.8,0,25.6,0,38.4
			C471.6,766.9,471.5,766.9,471.3,766.8z"/>
		<path fill="#EDEDED" d="M453.9,699.6c0,11.8,0,23.5,0,35.3c-0.2,0-0.3,0-0.5,0c0-11.8,0-23.5,0-35.3
			C453.6,699.6,453.8,699.6,453.9,699.6z"/>
		<path fill="#EDEDED" d="M471.9,695.4c0,7.9,0,15.8,0,23.7c-0.2,0-0.3,0-0.5,0c0-7.9,0-15.8,0-23.7
			C471.5,695.4,471.7,695.4,471.9,695.4z"/>
		<path fill="#EDEDED" d="M165.1,90.2c-0.2,0.3-0.4,0.7-0.6,1.1c-0.1-0.3-0.4-0.6-0.4-0.8c0.1-0.4,0.3-0.9,0.5-1.3
			C164.8,89.5,164.9,89.7,165.1,90.2z"/>
		<path fill="#EDEDED" d="M452.4,415.1c0-26.6,0-53.1,0-79.7c0.2,0,0.3,0,0.5,0c0,26.6,0,53.1,0,79.7
			C452.7,415.1,452.5,415.1,452.4,415.1z"/>
		<path fill="#EDEDED" d="M454.5,441.5c0-16,0-32,0-48c0.2,0,0.4,0,0.6,0c0,16,0,31.9,0,47.9C454.9,441.4,454.7,441.5,454.5,441.5z"
			/>
		<path fill="#EDEDED" d="M454.9,457.8c0,8.7,0,17.5,0,26.2C453.4,475.2,454.5,466.3,454.9,457.8z"/>
		<path fill="#EDEDED" d="M472.3,318.9c0-3.1,0-6.2,0-9.3c0.2,0,0.3,0,0.5,0c0,3.1,0,6.2,0,9.3C472.6,318.9,472.5,318.9,472.3,318.9
			z"/>
		<path fill="#EDEDED" d="M452.6,318.9c0.1,0.1,0.2,0.2,0.2,0.3c0,0.1-0.2,0.2-0.2,0.3C452.6,319.3,452.6,319.1,452.6,318.9z"/>
		<path fill="#EDEDED" d="M242.9,153.6c0,8.1,0,16.2,0,24.3c-0.2,0-0.3,0-0.5,0c0-8.1,0-16.2,0-24.3
			C242.6,153.6,242.8,153.6,242.9,153.6z"/>
		<path fill="#EDEDED" d="M98.6,598.9c-0.6-1.9-0.8-3.7,0-5.9C99.4,595.2,99.2,597.1,98.6,598.9z"/>
		<path fill="#EDEDED" d="M242.7,550.5c-0.3-0.5-0.5-0.8-0.5-1c0-0.4,0.3-0.9,0.4-1.3c0.2,0.3,0.4,0.5,0.4,0.8
			C243,549.4,242.9,549.9,242.7,550.5z"/>
		<path fill="#EDEDED" d="M164.9,305.4c0,9.9,0,19.8,0,29.6c-0.2,0-0.3,0-0.5,0c0-9.9,0-19.8,0-29.6
			C164.5,305.4,164.7,305.4,164.9,305.4z"/>
		<path fill="#EDEDED" d="M383.9,417.4c0,25.9,0,51.8,0,77.7c-0.2,0-0.3,0-0.5,0c0-25.9,0-51.8,0-77.7
			C383.5,417.4,383.7,417.4,383.9,417.4z"/>
		<path fill="#EDEDED" d="M381.4,430.1c0-22.9,0-45.8,0-68.7c0.2,0,0.3,0,0.5,0c0,22.9,0,45.8,0,68.7
			C381.7,430.1,381.5,430.1,381.4,430.1z"/>
		<path fill="#EDEDED" d="M362.4,344.1c0-39.9,0-79.8,0-119.7c0.2,0,0.3,0,0.5,0c0,39.9,0,79.8,0,119.7
			C362.7,344.1,362.5,344.1,362.4,344.1z"/>
		<path fill="#EDEDED" d="M359.8,409.5c0,5.5,0,11,0,16.6c-0.1,0-0.3,0-0.4,0c0-5.5,0-11,0-16.6
			C359.5,409.4,359.7,409.5,359.8,409.5z"/>
		<path fill="#EDEDED" d="M527.1,389.2c0.1-0.4,0.2-0.8,0.3-1.2C528.3,388.7,527.4,388.9,527.1,389.2L527.1,389.2z"/>
		<path fill="#EDEDED" d="M359.4,599.1c0-35.6,0-71.1,0-106.7c0.2,0,0.3,0,0.5,0c0,35.6,0,71.1,0,106.7
			C359.7,599.1,359.5,599.1,359.4,599.1z"/>
		<path fill="#EDEDED" d="M361.8,529.4c0,31.2,0,62.4,0,93.6c-0.2,0-0.3,0-0.5,0c0-31.2,0-62.4,0-93.6
			C361.5,529.4,361.7,529.4,361.8,529.4z"/>
		<path fill="#EDEDED" d="M84.4,304.1c0-13.5,0-27.1,0-40.6c0.2,0,0.3,0,0.5,0c0,13.5,0,27.1,0,40.6
			C84.7,304.1,84.5,304.1,84.4,304.1z"/>
		<path fill="#EDEDED" d="M84.3,350.9c0-12.7,0-25.5,0-38.2c0.2,0,0.3,0,0.5,0c0,12.7,0,25.5,0,38.2
			C84.6,350.9,84.5,350.9,84.3,350.9z"/>
		<path fill="#EDEDED" d="M84.1,238.2c0.2,0.3,0.5,0.7,0.7,1C83.7,239.5,84.4,238.5,84.1,238.2C84.1,238.2,84.1,238.2,84.1,238.2z"
			/>
		<path fill="#EDEDED" d="M41.1,656.4c1.7-15,0.8-30,1.7-45c0,15,0,30,0,45C42.2,656.4,41.7,656.4,41.1,656.4z"/>
		<path fill="#EDEDED" d="M42.1,608.2c-2,4.3-0.8,8.9-1,13.3c-0.2,5.8,0,11.6-0.7,17.4c0-15.1,0-30.3,0-46.2
			C42.2,598.3,39.6,603.6,42.1,608.2L42.1,608.2z"/>
		<path fill="#EDEDED" d="M42.1,608.2c0.3-1.5-0.6-3.2,1.2-4.8C43.8,605.5,43.3,606.9,42.1,608.2C42.1,608.2,42.1,608.2,42.1,608.2z
			"/>
		<path fill="#EDEDED" d="M405.9,233.5c0,12.4,0,24.9,0,37.3c-0.1,0-0.3,0-0.4,0c0-12.4,0-24.8,0-37.2
			C405.6,233.6,405.8,233.6,405.9,233.5z"/>
		<path fill="#EDEDED" d="M403.4,271.1c0-12.6,0-25.1,0-37.7c0.2,0,0.3,0,0.5,0c0,12.6,0,25.1,0,37.7
			C403.7,271.1,403.5,271.1,403.4,271.1z"/>
		<path fill="#EDEDED" d="M43.3,310.8c0-11.7,0-23.5,0-35.2c0.2,0,0.3,0,0.5,0c0,11.8,0,23.5,0,35.3
			C43.6,310.9,43.5,310.8,43.3,310.8z"/>
		<path fill="#EDEDED" d="M491.1,391.2c-0.1-0.1-0.2-0.1-0.4-0.2C490.9,391.1,491,391.2,491.1,391.2
			C491.1,391.2,491.1,391.2,491.1,391.2z"/>
		<path fill="#EDEDED" d="M403.3,687.9c0-2.8,0-5.5,0-8.3c0.2,0,0.3,0,0.5,0c0,2.7,0,5.5,0,8.2C403.6,687.9,403.5,687.9,403.3,687.9
			z"/>
		<path fill="#EDEDED" d="M421.1,673.2c-0.1-0.1-0.2-0.1-0.4-0.2C420.9,673.1,421,673.2,421.1,673.2
			C421.1,673.2,421.1,673.2,421.1,673.2z"/>
		<path fill="#EDEDED" d="M132.1,214.2c0,2.6,0,5.2,0,7.8C131.3,219.4,130.3,216.7,132.1,214.2C132.1,214.2,132.1,214.2,132.1,214.2
			z"/>
	</g>
</g>
<g>
	<defs>
		<rect id="SVGID_1_" x="563.1" y="-0.8" width="538.5" height="797"/>
	</defs>
	<clipPath id="SVGID_2_">
		<use xlink:href="#SVGID_1_"  overflow="visible"/>
	</clipPath>
</g>
</svg>
